<!-- Generator: Adobe Illustrator 19.0.0, SVG Export Plug-In  -->
<svg version="1.0"
	 xmlns="http://www.w3.org/2000/svg" xmlns:xlink="http://www.w3.org/1999/xlink" xmlns:a="http://ns.adobe.com/AdobeSVGViewerExtensions/3.0/"
	 x="0px" y="0px" width="732.6px" height="734.9px" viewBox="0 0 732.6 734.9" style="enable-background:new 0 0 732.6 734.9;"
	 xml:space="preserve">
<style type="text/css">
	.st0{fill:#F8ED34;}
</style>
<defs>
</defs>
<g id="XMLID_399_">
	<path id="XMLID_781_" class="st0" d="M13.6,267.9c0.2,0.5,0.9,1,1.8,1.2l2.2,0.6l0.9-3.1l1.5,0.4l-0.9,3.1l10.2,2.9l-0.5,1.7
		l-10.2-2.9l-0.6,2.3l-1.5-0.4l0.6-2.3l-2.2-0.6c-1.3-0.4-2.2-1-2.7-1.8c-0.5-0.9-0.6-1.8-0.3-2.9c0.1-0.4,0.3-0.9,0.6-1.2l1.4,0.4
		c-0.2,0.3-0.3,0.7-0.5,1.2C13.4,267,13.4,267.4,13.6,267.9z"/>
	<path id="XMLID_779_" class="st0" d="M19.8,262.5l2.3,0.7c-1-0.9-1.5-2.1-1.5-3.1c0-0.5,0-1,0.2-1.5c0.1-0.3,0.1-0.4,0.2-0.5
		l1.8,0.6c-0.1,0.2-0.2,0.4-0.2,0.6c-0.8,2.8,1.2,4.3,3.2,5l5.7,1.7l-0.5,1.7l-11.6-3.6L19.8,262.5z"/>
	<path id="XMLID_776_" class="st0" d="M33.2,258.2c-0.8,0.7-1.8,1.2-2.9,1.4c-1.1,0.2-2.2,0.1-3.3-0.2c-1.7-0.6-2.9-1.6-3.7-3.2
		c-0.8-1.5-0.9-3.1-0.3-4.8c1-3.3,4.7-5.1,8-3.9c3.4,1.1,5.2,4.8,4,8C34.7,256.6,34.1,257.5,33.2,258.2z M33.3,251.5
		c-0.6-1.1-1.5-1.8-2.7-2.2c-1.2-0.4-2.4-0.4-3.6,0.1c-1.2,0.5-1.9,1.4-2.4,2.6c-0.4,1.2-0.3,2.4,0.3,3.5c0.6,1.1,1.5,1.8,2.8,2.3
		c2.4,0.9,5.2-0.2,5.9-2.7C34,253.7,33.9,252.6,33.3,251.5z"/>
	<path id="XMLID_774_" class="st0" d="M41.1,238.5l-6.6-2.6c-1.1-0.4-2-0.5-2.8-0.2c-0.8,0.3-1.4,0.9-1.8,2c-0.4,1-0.4,1.9,0.1,2.8
		c0.4,0.9,1.2,1.5,2.2,1.9l6.5,2.5l-0.6,1.7l-11.4-4.4l0.6-1.6l2.1,0.8c-1.2-1.5-1.4-3.1-0.8-4.8c0.5-1.3,1.3-2.2,2.5-2.7
		c1.1-0.4,2.4-0.4,3.7,0.2l7,2.7L41.1,238.5z"/>
	<path id="XMLID_772_" class="st0" d="M40.5,231.6l-6.9-2.9l-0.9,2.1l-1.4-0.6l0.9-2.1l-3.2-1.4l0.7-1.6l3.2,1.4l1.2-2.8l1.4,0.6
		l-1.2,2.8l6.8,2.9c1,0.4,1.8,0.1,2.4-1.2c0.2-0.4,0.3-0.7,0.3-1.1l1.4,0.6c0,0.4-0.2,0.9-0.4,1.4C43.8,232.2,42.1,232.3,40.5,231.6
		z"/>
	<path id="XMLID_770_" class="st0" d="M39,222.7l2.7-5.9l1.7,0.8l-2.7,5.9L39,222.7z"/>
	<path id="XMLID_767_" class="st0" d="M46,213.6c1.1,0.5,2.2,0.5,3.3,0.1c1.1-0.4,1.9-1.1,2.4-2.2c0.8-1.6,0.6-3.3-0.6-4.5l1.1-1.2
		c0.9,0.8,1.4,1.8,1.6,3c0.1,1.2,0,2.3-0.6,3.4c-0.5,1-1.2,1.8-2.2,2.4c-0.9,0.6-1.9,0.9-3,0.9c-1.1,0.1-2.2-0.2-3.2-0.7
		c-1-0.5-1.8-1.2-2.4-2.1c-0.7-0.9-1-1.8-1.1-2.9c-0.1-1.1,0.1-2.1,0.6-3.1c0.5-1.1,1.2-1.9,2.1-2.4c0.9-0.5,1.9-0.8,2.9-0.8
		c1,0,2.1,0.3,3.2,0.9c0.1,0.1,0.3,0.1,0.5,0.3L46,213.6z M48.2,205.6c-1.1-0.4-2.1-0.4-3-0.1c-0.9,0.3-1.6,1-2.1,2
		c-0.5,0.9-0.5,1.9-0.2,2.9c0.3,1,0.9,1.8,1.8,2.4L48.2,205.6z"/>
	<path id="XMLID_765_" class="st0" d="M60.9,196.9l-6.2-3.4c-1-0.5-1.9-0.7-2.8-0.5c-0.9,0.2-1.6,0.7-2.1,1.7
		c-0.5,0.9-0.6,1.9-0.3,2.8c0.3,0.9,1,1.7,1.9,2.2l6.1,3.3l-0.9,1.6L46,198.8l0.8-1.5l2,1.1c-1-1.6-1-3.3-0.1-4.9
		c0.7-1.3,1.6-2,2.8-2.4c1.2-0.3,2.4-0.1,3.7,0.7l6.6,3.6L60.9,196.9z"/>
	<path id="XMLID_762_" class="st0" d="M55.1,186.2c-0.5-1.5-0.4-3.1,0.5-4.6c0.6-1,1.4-1.7,2.2-2c0.9-0.4,1.6-0.5,2.6-0.6l-7.7-4.6
		l0.9-1.5l15.9,9.6l-0.9,1.5l-2.2-1.3c1,1.9,1,3.8-0.1,5.5c-0.9,1.4-2.3,2.3-3.8,2.6c-1.5,0.2-3.1-0.1-4.6-0.9
		C56.6,188.9,55.6,187.6,55.1,186.2z M63.3,180.8c-1.4-0.8-3.1-0.9-4.5-0.3c-0.7,0.4-1.3,0.9-1.7,1.6c-0.7,1.1-0.8,2.2-0.4,3.3
		c0.4,1.1,1.1,2.1,2.3,2.8c1.4,0.9,3,1,4.5,0.4c0.7-0.3,1.3-0.9,1.7-1.6C66.5,184.9,65.5,182,63.3,180.8z"/>
	<path id="XMLID_760_" class="st0" d="M65.9,165.7l2,1.3c-0.7-1.2-0.8-2.4-0.5-3.4c0.1-0.5,0.3-0.9,0.6-1.3c0.2-0.2,0.3-0.4,0.4-0.5
		l1.6,1.1c-0.2,0.1-0.3,0.3-0.4,0.5c-1.6,2.4-0.2,4.5,1.6,5.7l4.9,3.3l-1,1.5L65,167.1L65.9,165.7z"/>
	<path id="XMLID_758_" class="st0" d="M70.9,158.4l5.7,4.2c0.9,0.7,1.8,1,2.7,0.9c0.9-0.1,1.6-0.5,2.3-1.4c0.6-0.9,0.8-1.8,0.6-2.7
		c-0.2-1-0.7-1.8-1.6-2.4l-5.6-4.1l1-1.4l9.9,7.2l-1,1.4l-1.8-1.3c0.8,1.8,0.6,3.4-0.5,4.8c-0.9,1.2-1.9,1.8-3.1,2
		c-1.2,0.1-2.4-0.3-3.6-1.1l-6.1-4.4L70.9,158.4z"/>
	<path id="XMLID_756_" class="st0" d="M73.6,144.1l1.1-1.4L89.4,154l-1.1,1.4L73.6,144.1z"/>
	<path id="XMLID_753_" class="st0" d="M88.1,146.7c1,0.7,2,1,3.1,0.8c1.2-0.1,2.1-0.7,2.8-1.6c1.2-1.4,1.3-3.1,0.4-4.6l1.4-0.9
		c0.7,1,1,2.1,0.9,3.3c-0.1,1.2-0.6,2.2-1.3,3.2c-0.7,0.9-1.6,1.5-2.7,1.9c-1,0.4-2.1,0.5-3.2,0.3c-1.1-0.2-2.1-0.6-3-1.4
		c-0.9-0.7-1.5-1.5-1.9-2.5c-0.4-1-0.6-2-0.5-3.1c0.1-1.1,0.5-2.1,1.2-2.9c0.8-0.9,1.6-1.6,2.6-1.9c1-0.3,2-0.4,3-0.1
		c1,0.2,1.9,0.8,2.9,1.5c0.1,0.1,0.2,0.2,0.4,0.4L88.1,146.7z M92,139.5c-1-0.6-1.9-0.9-2.9-0.8c-1,0.1-1.8,0.6-2.5,1.5
		c-0.7,0.8-0.9,1.7-0.9,2.8c0.1,1.1,0.5,2,1.2,2.8L92,139.5z"/>
	<path id="XMLID_751_" class="st0" d="M104.4,134.7c0,1.1-0.5,2.1-1.2,3c-1.3,1.5-2.7,1.9-3.9,1.8c-0.8-0.1-1.4-0.3-1.9-0.7l0.8-1.5
		c1,0.6,2.6,0.9,3.8-0.6c0.5-0.5,0.7-1.1,0.8-1.7c0.1-0.6-0.1-1.1-0.6-1.5c-0.4-0.3-0.8-0.4-1.3-0.3c-0.5,0.1-1,0.3-1.4,0.6
		l-1.5,1.1c-1.7,1.2-3.1,1.3-4.4,0.2c-0.9-0.8-1.3-2-1.1-3c0.2-1,0.6-1.9,1.1-2.5c1.2-1.4,2.5-1.8,3.6-1.7c0.8,0.1,1.3,0.3,1.7,0.5
		l-0.7,1.5c-0.4-0.2-0.9-0.3-1.5-0.4c-0.6,0-1.3,0.4-1.9,1c-0.4,0.5-0.7,1-0.7,1.6c0,0.6,0.2,1.1,0.6,1.4c0.7,0.6,1.5,0.4,2.4-0.2
		l1.6-1.2c1.3-1,3.1-1.5,4.6-0.2C104,132.7,104.4,133.6,104.4,134.7z"/>
	<path id="XMLID_749_" class="st0" d="M106.1,122.1l4.5-4.7l1.4,1.3l-4.5,4.7L106.1,122.1z"/>
	<path id="XMLID_747_" class="st0" d="M126.8,112.9l-1.4,1.3l-11.2-6.2l1.4-1.3l9.2,5.3l-4.4-9.7l1.3-1.2l9.3,5.2l0,0l-4.5-9.6
		l1.4-1.2l5.2,11.7l-1.4,1.3l-9.1-5.1l0,0L126.8,112.9z"/>
	<path id="XMLID_744_" class="st0" d="M134.6,98.4c0.8,0.9,1.8,1.3,2.9,1.4c1.2,0.1,2.2-0.3,3.1-1c1.4-1.2,1.9-2.8,1.2-4.4l1.5-0.6
		c0.5,1.1,0.6,2.2,0.2,3.4c-0.3,1.1-1,2.1-1.9,2.9c-0.9,0.7-1.9,1.2-3,1.4c-1.1,0.2-2.1,0.1-3.2-0.3c-1-0.4-1.9-1-2.7-1.9
		c-0.7-0.8-1.2-1.8-1.4-2.9c-0.3-1.1-0.2-2.1,0.1-3.2c0.3-1,0.9-1.9,1.8-2.6c0.9-0.8,1.9-1.2,2.9-1.4c1-0.2,2,0,2.9,0.4
		c0.9,0.4,1.8,1.1,2.6,2c0.1,0.1,0.2,0.2,0.4,0.5L134.6,98.4z M139.9,92.1c-0.8-0.8-1.7-1.2-2.7-1.3c-1-0.1-1.9,0.2-2.7,1
		c-0.8,0.7-1.2,1.5-1.4,2.6c-0.1,1.1,0.1,2.1,0.6,2.9L139.9,92.1z"/>
	<path id="XMLID_741_" class="st0" d="M155.1,88.2c-0.3,1-1,1.9-1.8,2.5c-1.6,1.2-3.4,1.5-5.4,0.7l1.6,2l-1.4,1.1l-11.3-14.7
		l1.4-1.1l5.5,7.1c-0.2-2.2,0.5-4,2-5.1c1.3-1,3-1.4,4.5-1c1.5,0.3,2.9,1.2,3.9,2.5C155.3,84,155.8,86.1,155.1,88.2z M153.7,86.7
		c0-1.2-0.3-2.3-1.1-3.3c-1-1.4-2.5-2.1-4.1-2c-0.8,0-1.5,0.3-2.2,0.9c-2,1.5-2.1,4.5-0.6,6.4c0.8,1,1.8,1.7,3,1.9
		c1.2,0.2,2.3,0,3.4-0.8C153.1,88.9,153.6,87.9,153.7,86.7z"/>
	<path id="XMLID_738_" class="st0" d="M166.3,77.6c0.2,2.2-0.6,3.8-2.2,5c-0.9,0.6-1.9,1-3,1c-1,0-2-0.2-2.9-0.7
		c-0.9-0.5-1.7-1.2-2.3-2.1c-0.6-0.9-1-1.8-1.2-2.9c-0.2-1,0-2.1,0.3-3.1c0.4-1,1-1.8,1.9-2.5c0.9-0.6,1.9-1,2.9-1
		c0.9,0,1.7,0.2,2.6,0.5l-1.5-2.1l1.4-1l6.8,9.7c1.2,1.7,1.6,3.3,1.3,4.9c-0.3,1.5-1.3,2.9-2.8,4c-1.2,0.9-2.5,1.3-3.9,1.2
		c-1.3-0.1-2.4-0.5-3.3-1.3l1-1.4c1,0.9,3,1.8,5.2,0.2c1.1-0.7,1.7-1.6,2-2.7c0.3-1.1,0-2.4-1-3.8L166.3,77.6z M165.2,78.2
		c0.2-1.2-0.1-2.4-0.9-3.4c-1.3-2-4.3-2.7-6.2-1.3c-1.1,0.8-1.7,1.7-1.8,2.9c-0.1,1.2,0.2,2.3,1,3.4c1.4,2.1,4,2.8,6.1,1.3
		C164.5,80.4,165.1,79.4,165.2,78.2z"/>
	<path id="XMLID_736_" class="st0" d="M162.3,61.1l1.5-1l10.2,15.5l-1.5,1L162.3,61.1z"/>
	<path id="XMLID_734_" class="st0" d="M178.3,63.4l5.6-3.4l1,1.6l-5.6,3.4L178.3,63.4z"/>
	<path id="XMLID_732_" class="st0" d="M199.9,60.3L189.5,52l1.7-0.9l8.5,7l-1.1-11l1.7-0.9l1.2,13.2L199.9,60.3z"/>
	<path id="XMLID_730_" class="st0" d="M204.3,44.2l3.1,6.4c0.5,1,1.2,1.7,2,2c0.8,0.4,1.7,0.3,2.7-0.2c0.9-0.5,1.6-1.2,1.9-2.1
		s0.2-1.9-0.3-2.9l-3-6.2l1.6-0.8l5.3,10.9l-1.6,0.8l-1-2c-0.2,1.9-1,3.3-2.7,4.1c-1.3,0.6-2.5,0.7-3.7,0.3c-1.1-0.5-2-1.3-2.6-2.7
		l-3.3-6.8L204.3,44.2z"/>
	<path id="XMLID_727_" class="st0" d="M219.7,44.3c0.5,1.1,1.3,1.8,2.4,2.2c1.1,0.4,2.2,0.4,3.2-0.1c1.7-0.7,2.6-2.1,2.4-3.9
		l1.6-0.2c0.1,1.2-0.1,2.3-0.7,3.3c-0.6,1-1.5,1.7-2.7,2.2c-1.1,0.5-2.1,0.6-3.2,0.5c-1.1-0.1-2.1-0.5-2.9-1.2
		c-0.9-0.7-1.5-1.5-2-2.6c-0.4-1-0.6-2-0.5-3.1c0.1-1.1,0.4-2.1,1-3c0.6-0.9,1.4-1.6,2.4-2c1.1-0.5,2.2-0.7,3.2-0.5
		c1,0.1,1.9,0.6,2.7,1.3c0.8,0.7,1.4,1.6,1.9,2.7c0,0.1,0.1,0.3,0.2,0.5L219.7,44.3z M226.4,39.6c-0.6-1-1.3-1.6-2.2-2
		c-0.9-0.4-1.9-0.3-2.9,0.2c-1,0.4-1.6,1.1-2,2.1c-0.4,1-0.5,2-0.2,3L226.4,39.6z"/>
	<path id="XMLID_725_" class="st0" d="M236.3,34.5l6.1-2.3l0.7,1.8l-6.1,2.3L236.3,34.5z"/>
	<path id="XMLID_723_" class="st0" d="M258.1,35.3l-8.6-10l1.9-0.6l7.1,8.5l0.9-11l1.8-0.6l-1.2,13.2L258.1,35.3z"/>
	<path id="XMLID_721_" class="st0" d="M265.5,20.3l0.7,2.3c0.2-1.3,1-2.4,1.8-2.9c0.4-0.3,0.9-0.5,1.3-0.6c0.3-0.1,0.4-0.1,0.6-0.1
		l0.5,1.8c-0.2,0-0.4,0.1-0.7,0.1c-2.8,0.8-3,3.3-2.4,5.4l1.6,5.7l-1.7,0.5l-3.4-11.7L265.5,20.3z"/>
	<path id="XMLID_719_" class="st0" d="M277.9,21.2l6.3-1.5l0.4,1.8l-6.3,1.5L277.9,21.2z"/>
	<path id="XMLID_716_" class="st0" d="M304.7,21c-0.7,2-2.1,3.2-4.1,3.6c-1.1,0.2-2.1,0.1-3.1-0.3c-1-0.4-1.8-1-2.4-1.8
		c-0.6-0.9-1-1.8-1.2-2.9c-0.2-1.1-0.2-2.1,0.1-3.1c0.3-1,0.8-1.9,1.6-2.6c0.8-0.8,1.7-1.2,2.8-1.4c1.1-0.2,2.2-0.1,3,0.3
		c0.8,0.4,1.5,0.9,2.1,1.5l-0.5-2.5l1.7-0.3l2.2,11.7c0.4,2,0.1,3.7-0.8,5c-0.9,1.3-2.3,2.1-4.3,2.5c-1.5,0.3-2.8,0.1-4-0.5
		c-1.2-0.6-2-1.4-2.4-2.6l1.5-0.8c0.5,1.2,2,2.8,4.7,2.3c1.3-0.2,2.2-0.8,3-1.6c0.7-0.9,1-2.2,0.7-3.8L304.7,21z M303.4,21
		c0.7-1,0.9-2.2,0.6-3.5c-0.4-2.3-2.7-4.2-5.1-3.8c-1.3,0.2-2.2,0.9-2.8,1.9c-0.6,1-0.8,2.2-0.5,3.5c0.4,2.5,2.5,4.3,5,3.7
		C301.9,22.7,302.8,22.1,303.4,21z"/>
	<path id="XMLID_714_" class="st0" d="M310.7,10.4l0.4,2.4c0.4-1.3,1.3-2.2,2.1-2.7c0.4-0.2,0.9-0.4,1.4-0.5c0.3,0,0.5-0.1,0.6,0
		l0.3,1.9c-0.2,0-0.4,0-0.7,0.1c-2.9,0.4-3.4,2.9-3.1,5.1l0.9,5.9l-1.8,0.3l-1.8-12L310.7,10.4z"/>
	<path id="XMLID_711_" class="st0" d="M325,13.7l-0.1-0.8c-0.2-1.9-1.4-2.8-3.4-2.6c-1,0.1-1.8,0.5-2.2,1.1
		c-0.4,0.5-0.7,1.1-0.7,1.8l-1.7-0.2c0-0.6,0.4-1.9,1.4-2.9c0.7-0.6,1.8-1.2,3.1-1.4c2.2-0.3,3.8,0.4,4.7,2c0.3,0.5,0.5,1.2,0.6,2
		l0.4,3.4c0.2,2,0.5,3.5,0.7,4.4l-1.8,0.2c-0.2-0.5-0.3-1.2-0.4-2.1c-0.8,1.7-2.1,2.6-3.8,2.8c-1.2,0.1-2.2-0.1-3-0.7
		c-0.8-0.6-1.3-1.4-1.5-2.4l0-0.1c-0.3-2.6,2.2-3.8,4.4-4.1L325,13.7z M325.2,15.2l-3.4,0.4c-0.7,0.1-1.3,0.3-1.9,0.7
		c-0.6,0.3-0.9,1-0.8,1.7c0.1,0.7,0.4,1.2,0.9,1.5c0.5,0.3,1.2,0.5,1.9,0.4c1.1-0.1,1.9-0.6,2.6-1.4c0.6-0.8,0.9-1.7,0.7-2.8
		L325.2,15.2z"/>
	<path id="XMLID_708_" class="st0" d="M340.7,18.6c-0.8,0.7-1.8,1-2.9,1.1c-2,0.2-3.6-0.6-4.9-2.3l0.7,8.5l-1.8,0.1l-1.5-18.1
		l1.7-0.1l0.2,2.6c1.1-2,2.6-3.1,4.5-3.2c1.7-0.1,3.3,0.5,4.3,1.6c1,1.1,1.8,2.6,1.9,4.2C343.1,15.2,342.3,17.3,340.7,18.6z
		 M340.3,16.6c0.7-1,1-2.1,0.9-3.4c-0.1-1.7-0.9-3.1-2.3-3.9c-0.7-0.4-1.5-0.5-2.3-0.5c-2.5,0.2-4.2,2.6-4,5
		c0.1,1.3,0.6,2.4,1.5,3.2c0.9,0.9,2,1.3,3.2,1.2C338.6,18.1,339.6,17.6,340.3,16.6z"/>
	<path id="XMLID_706_" class="st0" d="M355.2,18.6l-0.3-7.1c0-1.1-0.3-2-1-2.7c-0.6-0.6-1.4-0.9-2.5-0.9c-1.1,0-1.9,0.4-2.6,1.2
		c-0.6,0.8-0.9,1.7-0.9,2.8l0.3,6.9l-1.8,0.1l-0.7-18.6l1.8-0.1l0.3,8.6c0.9-1.7,2.3-2.5,4.1-2.6c1.4-0.1,2.6,0.3,3.5,1.2
		c0.8,0.9,1.3,2,1.3,3.5l0.3,7.5L355.2,18.6z"/>
	<path id="XMLID_703_" class="st0" d="M361.4,7.9c1-1.2,2.5-1.9,4.2-1.9c1.2,0,2.1,0.4,2.9,0.9c0.8,0.6,1.3,1.1,1.8,2l0-2.6l1.7,0
		l-0.3,18.2l-1.8,0l0.1-8.6c-1.1,1.8-2.7,2.7-4.8,2.7c-1.7,0-3.2-0.8-4.1-2c-0.9-1.2-1.5-2.7-1.5-4.4
		C359.8,10.6,360.5,9.1,361.4,7.9z M370.3,12.4c0-1.6-0.7-3.1-2.1-4.1c-0.7-0.5-1.4-0.7-2.2-0.7c-1.3,0-2.3,0.4-3.1,1.3
		c-0.8,0.9-1.2,2-1.2,3.4c0,1.7,0.6,3.1,1.9,4c0.7,0.5,1.4,0.7,2.3,0.7C368.3,17.1,370.3,14.8,370.3,12.4z"/>
	<path id="XMLID_701_" class="st0" d="M376.5,0l1.8,0.1l-0.6,18.6l-1.8-0.1L376.5,0z"/>
	<path id="XMLID_699_" class="st0" d="M388.2,11l6.5,0.5l-0.1,1.9l-6.5-0.5L388.2,11z"/>
	<path id="XMLID_697_" class="st0" d="M407.1,8.6l-0.3,2.4c0.7-1.1,1.8-1.8,2.8-2c0.5-0.1,1-0.1,1.5-0.1c0.3,0,0.5,0.1,0.6,0.1
		l-0.2,1.9c-0.2-0.1-0.4-0.1-0.7-0.1c-2.9-0.3-4,1.9-4.3,4.1l-0.7,5.9l-1.8-0.2l1.4-12.1L407.1,8.6z"/>
	<path id="XMLID_694_" class="st0" d="M413.2,16c-0.1,1.2,0.2,2.2,0.9,3.1c0.7,0.9,1.6,1.5,2.8,1.6c1.8,0.3,3.3-0.4,4.1-2l1.5,0.7
		c-0.5,1.1-1.3,1.9-2.4,2.4c-1.1,0.5-2.2,0.7-3.4,0.5c-1.1-0.2-2.1-0.6-3-1.3s-1.5-1.6-1.9-2.6c-0.4-1-0.5-2.1-0.3-3.2
		c0.2-1.1,0.5-2.1,1.2-2.9c0.6-0.9,1.4-1.5,2.4-2c1-0.5,2-0.6,3.1-0.4c1.2,0.2,2.2,0.6,3,1.3c0.8,0.7,1.3,1.5,1.6,2.5
		c0.3,1,0.3,2.1,0.2,3.3c0,0.1,0,0.3-0.1,0.6L413.2,16z M421.4,15.7c0-1.1-0.2-2.1-0.8-2.9c-0.6-0.8-1.4-1.2-2.5-1.4
		c-1-0.2-2,0.1-2.9,0.7c-0.9,0.6-1.5,1.4-1.8,2.4L421.4,15.7z"/>
	<path id="XMLID_691_" class="st0" d="M433.6,17.8l0.1-0.8c0.4-1.9-0.5-3.1-2.5-3.5c-1-0.2-1.8,0-2.4,0.4c-0.6,0.4-1,0.9-1.2,1.5
		l-1.6-0.7c0.1-0.6,0.9-1.7,2.2-2.3c0.8-0.4,2.1-0.6,3.4-0.4c2.2,0.4,3.5,1.5,3.9,3.3c0.1,0.6,0.1,1.3,0,2l-0.6,3.4
		c-0.4,2-0.6,3.5-0.6,4.4l-1.7-0.3c0-0.5,0.1-1.3,0.2-2.1c-1.3,1.4-2.8,1.9-4.5,1.6c-1.2-0.2-2.1-0.7-2.7-1.5
		c-0.6-0.8-0.9-1.7-0.7-2.7l0-0.1c0.5-2.6,3.2-3,5.4-2.6L433.6,17.8z M433.3,19.3l-3.3-0.6c-0.7-0.1-1.4-0.1-2,0
		c-0.7,0.2-1.2,0.7-1.3,1.4c-0.1,0.7,0,1.2,0.5,1.7c0.4,0.5,1,0.8,1.7,0.9c1.1,0.2,2,0,2.9-0.6c0.8-0.5,1.4-1.4,1.6-2.5L433.3,19.3z
		"/>
	<path id="XMLID_689_" class="st0" d="M441,24.4c0.6,0.6,1.3,1,2.1,1.2c1,0.2,2,0.1,2.6-0.2c0.3-0.1,0.6-0.3,0.9-0.6
		c0.6-0.5,0.8-0.8,1.1-1.2l1.5,0.9c-0.5,0.9-1.3,1.6-2.4,2.2c-1.1,0.6-2.6,0.8-4.1,0.4c-3.4-0.7-5.5-4-4.7-7.5
		c0.3-1.2,0.8-2.2,1.5-3c0.8-0.8,1.7-1.4,2.7-1.7c1.1-0.3,2.1-0.4,3.2-0.1c1.3,0.3,2.4,1,3.3,1.9c0.9,1,1.3,2,1.3,3.1l-1.7,0.2
		c0-1-0.9-3.1-3.3-3.7c-1.2-0.3-2.4-0.1-3.4,0.6c-1,0.7-1.7,1.7-1.9,3C439.5,21.7,439.9,23.3,441,24.4z"/>
	<path id="XMLID_687_" class="st0" d="M452.4,26l1.9-7.2l-2.2-0.6l0.4-1.5l2.2,0.6l0.9-3.4l1.7,0.4l-0.9,3.4l3,0.8L459,20l-3-0.8
		l-1.8,7.2c-0.3,1.1,0.2,1.8,1.5,2.2c0.4,0.1,0.8,0.1,1.1,0.2l-0.4,1.4c-0.4,0-0.9,0-1.4-0.2C452.4,29.4,452,27.7,452.4,26z"/>
	<path id="XMLID_685_" class="st0" d="M467.3,25l6.2,1.9l-0.6,1.8l-6.2-1.9L467.3,25z"/>
	<path id="XMLID_683_" class="st0" d="M487.2,39.2c-1,0.4-2.1,0.3-3.2-0.1c-1.8-0.7-2.8-1.9-3.1-3c-0.2-0.8-0.2-1.4-0.1-2l1.7,0.2
		c-0.2,1.1,0.1,2.7,2,3.4c0.6,0.2,1.3,0.2,1.9,0.1c0.6-0.2,1-0.5,1.2-1.1c0.2-0.5,0.1-0.9-0.2-1.3c-0.3-0.4-0.6-0.8-1.1-1.1l-1.6-1
		c-1.7-1.1-2.3-2.5-1.8-4c0.4-1.2,1.4-1.9,2.4-2.1c1-0.2,2-0.2,2.7,0.1c1.7,0.6,2.6,1.7,2.9,2.8c0.2,0.7,0.2,1.3,0.1,1.8l-1.7-0.1
		c0-0.5,0-0.9-0.2-1.5c-0.2-0.6-0.8-1.1-1.7-1.4c-0.6-0.2-1.2-0.2-1.8,0c-0.6,0.2-0.9,0.6-1.1,1.1c-0.3,0.9,0.2,1.5,1.1,2.2l1.7,1.1
		c1.4,0.9,2.5,2.4,1.9,4.2C488.9,38.2,488.2,38.9,487.2,39.2z"/>
	<path id="XMLID_681_" class="st0" d="M494.4,40.7c0.5,0.7,1.1,1.2,1.9,1.5c1,0.4,1.9,0.4,2.6,0.2c0.3-0.1,0.6-0.2,1-0.4
		c0.6-0.4,1-0.7,1.3-1l1.3,1.1c-0.6,0.8-1.6,1.4-2.7,1.8c-1.2,0.4-2.7,0.4-4.1-0.2c-3.2-1.2-4.8-4.8-3.4-8.1c0.4-1.1,1.1-2,2-2.7
		c0.9-0.7,1.9-1.1,3-1.3c1.1-0.1,2.1,0,3.2,0.4c1.3,0.5,2.3,1.3,2.9,2.4c0.7,1.1,1,2.2,0.8,3.3l-1.7-0.1c0.1-1-0.4-3.2-2.7-4.1
		c-1.2-0.5-2.3-0.5-3.4,0.1c-1.1,0.5-1.9,1.4-2.4,2.6C493.4,37.7,493.5,39.4,494.4,40.7z"/>
	<path id="XMLID_679_" class="st0" d="M510.3,48.7c-1,0.3-2.1,0.2-3.2-0.3c-1.8-0.8-2.6-2-2.8-3.2c-0.2-0.8-0.1-1.4,0.1-2l1.6,0.3
		c-0.3,1.1,0,2.7,1.7,3.5c0.6,0.3,1.2,0.3,1.9,0.2c0.6-0.1,1-0.5,1.3-1c0.2-0.4,0.2-0.9-0.1-1.3c-0.2-0.5-0.6-0.8-1-1.1l-1.5-1.1
		c-1.7-1.2-2.2-2.6-1.5-4.1c0.5-1.1,1.5-1.8,2.5-2c1-0.1,2,0,2.7,0.3c1.7,0.8,2.5,1.9,2.7,3c0.2,0.7,0.1,1.3,0,1.8l-1.7-0.2
		c0.1-0.5,0.1-0.9-0.1-1.5c-0.2-0.6-0.7-1.2-1.6-1.6c-0.6-0.3-1.2-0.3-1.8-0.2c-0.6,0.1-1,0.5-1.2,1c-0.4,0.9,0.1,1.6,0.9,2.2
		l1.6,1.2c1.3,1,2.4,2.5,1.6,4.3C512.1,47.8,511.3,48.4,510.3,48.7z"/>
	<path id="XMLID_677_" class="st0" d="M520.3,53.4c-1,0.3-2.1,0.1-3.2-0.4c-1.8-0.8-2.6-2.1-2.7-3.3c-0.2-0.8-0.1-1.4,0.1-2l1.6,0.3
		c-0.3,1.1-0.1,2.7,1.6,3.5c0.6,0.3,1.2,0.4,1.9,0.3c0.6-0.1,1-0.4,1.3-1c0.2-0.4,0.2-0.9,0-1.3c-0.2-0.5-0.5-0.8-1-1.2l-1.5-1.2
		c-1.6-1.3-2.1-2.7-1.4-4.2c0.5-1.1,1.6-1.8,2.6-1.9c1-0.1,2,0,2.7,0.4c1.6,0.8,2.4,2,2.6,3c0.1,0.7,0.1,1.3,0,1.8l-1.7-0.3
		c0.1-0.5,0.1-0.9,0-1.5c-0.2-0.6-0.7-1.2-1.5-1.6c-0.6-0.3-1.2-0.4-1.7-0.2c-0.6,0.1-1,0.5-1.2,0.9c-0.4,0.9,0,1.6,0.9,2.3l1.6,1.2
		c1.3,1,2.3,2.6,1.4,4.4C522.1,52.6,521.3,53.2,520.3,53.4z"/>
	<path id="XMLID_675_" class="st0" d="M533,51.8l5.7,3.1l-0.9,1.7l-5.7-3.1L533,51.8z"/>
	<path id="XMLID_673_" class="st0" d="M550.9,71.5l3.7-6c0.6-1,0.8-1.9,0.7-2.7c-0.1-0.9-0.7-1.6-1.6-2.2c-0.9-0.5-1.8-0.7-2.8-0.4
		c-0.9,0.3-1.7,0.9-2.3,1.8l-3.6,5.9l-1.5-0.9l6.4-10.4l1.5,0.9l-1.2,1.9c1.7-0.9,3.3-0.9,4.9,0.1c1.2,0.8,2,1.7,2.2,2.9
		c0.2,1.2-0.1,2.4-0.8,3.7l-3.9,6.4L550.9,71.5z"/>
	<path id="XMLID_670_" class="st0" d="M557.7,75.1c-0.5-1-0.7-2.1-0.6-3.1c0.1-1.1,0.4-2.1,1.1-3.1c1-1.5,2.3-2.4,4-2.7
		c1.7-0.3,3.3,0,4.7,1c2.9,1.9,3.7,5.9,1.7,8.7c-1.9,3-5.9,3.8-8.8,1.7C558.9,76.9,558.2,76.1,557.7,75.1z M564.2,76.9
		c1.2-0.3,2.2-1,2.9-2.1c0.7-1.1,1-2.2,0.8-3.5c-0.2-1.3-0.8-2.2-1.9-3c-1.1-0.7-2.2-0.9-3.4-0.6c-1.2,0.3-2.2,1-2.9,2.1
		c-1.4,2.1-1.1,5,1.1,6.4C561.9,77,563,77.2,564.2,76.9z"/>
	<path id="XMLID_667_" class="st0" d="M574.4,74.6c1.5-0.4,3.2-0.1,4.5,0.9c0.9,0.7,1.5,1.5,1.8,2.4c0.3,0.9,0.4,1.7,0.4,2.6
		l5.3-7.2l1.4,1l-11,15l-1.4-1l1.5-2.1c-2,0.8-3.8,0.6-5.5-0.6c-1.4-1-2.1-2.5-2.2-4c-0.1-1.5,0.4-3.1,1.3-4.5
		C571.5,75.9,572.9,75,574.4,74.6z M579,83.3c0.9-1.3,1.2-3,0.7-4.5c-0.3-0.8-0.8-1.4-1.4-1.9c-1-0.8-2.1-1-3.3-0.7
		c-1.2,0.3-2.2,0.9-3,2.1c-1,1.4-1.3,2.9-0.8,4.4c0.3,0.7,0.8,1.4,1.4,1.9C574.7,86.1,577.6,85.3,579,83.3z"/>
	<path id="XMLID_664_" class="st0" d="M584,87.9c-0.7,1-1,2-0.8,3.2c0.1,1.2,0.7,2.1,1.6,2.8c1.4,1.1,3.1,1.3,4.6,0.3l0.9,1.4
		c-1,0.7-2.1,1-3.2,0.9c-1.2-0.1-2.2-0.5-3.2-1.3c-0.9-0.7-1.5-1.6-1.9-2.6c-0.4-1-0.5-2.1-0.3-3.2c0.2-1.1,0.6-2.1,1.3-3
		c0.7-0.9,1.5-1.5,2.5-1.9c1-0.5,2-0.6,3.1-0.5c1.1,0.1,2.1,0.5,2.9,1.2c0.9,0.7,1.6,1.6,1.9,2.6c0.4,1,0.4,2,0.1,3
		c-0.2,1-0.7,1.9-1.5,2.9c-0.1,0.1-0.2,0.2-0.4,0.4L584,87.9z M591.3,91.8c0.6-1,0.8-1.9,0.8-2.9c-0.1-1-0.6-1.8-1.5-2.5
		c-0.8-0.7-1.7-0.9-2.8-0.8c-1.1,0.1-2,0.5-2.8,1.2L591.3,91.8z"/>
	<path id="XMLID_662_" class="st0" d="M591.1,98.9c0.3-0.3,0.7-0.5,1.1-0.6c0.4,0,0.8,0.1,1.2,0.4c0.4,0.3,0.5,0.6,0.6,1.1
		c0,0.4-0.1,0.9-0.4,1.2c-0.3,0.4-0.7,0.5-1.1,0.6c-0.4,0-0.8-0.1-1.2-0.4c-0.4-0.3-0.5-0.6-0.6-1.1
		C590.6,99.6,590.8,99.2,591.1,98.9z"/>
	<path id="XMLID_659_" class="st0" d="M604.8,96.5l-9.7,11.1c-1.5,1.7-3.2,1.8-4.9,0.3c-0.2-0.2-0.5-0.5-0.7-0.9l1-1.1
		c0.2,0.2,0.4,0.4,0.6,0.6c0.9,0.8,1.9,0.8,2.8-0.2l9.7-11.1L604.8,96.5z M607.9,91.7c0.3,0.2,0.4,0.6,0.5,0.9c0,0.4-0.1,0.7-0.4,1
		c-0.2,0.3-0.5,0.4-0.9,0.5c-0.4,0-0.7-0.1-1-0.3c-0.3-0.2-0.4-0.6-0.4-0.9c0-0.4,0.1-0.7,0.3-1C606.5,91.2,607.3,91.2,607.9,91.7z"
		/>
	<path id="XMLID_657_" class="st0" d="M605.2,112.3c-1.1-0.1-2.1-0.5-2.9-1.3c-1.4-1.3-1.8-2.8-1.7-3.9c0.1-0.8,0.4-1.4,0.7-1.9
		l1.5,0.8c-0.6,1-0.9,2.6,0.5,3.9c0.5,0.5,1.1,0.7,1.7,0.8c0.6,0.1,1.1-0.1,1.5-0.6c0.3-0.4,0.5-0.8,0.4-1.3c-0.1-0.5-0.3-1-0.6-1.4
		l-1.1-1.6c-1.2-1.7-1.2-3.2-0.1-4.4c0.8-0.9,2-1.2,3-1c1,0.2,1.9,0.6,2.5,1.2c1.3,1.3,1.7,2.6,1.6,3.7c-0.1,0.7-0.3,1.3-0.6,1.7
		l-1.5-0.8c0.2-0.4,0.4-0.9,0.4-1.5c0-0.6-0.3-1.4-1-2c-0.5-0.4-1-0.7-1.6-0.7c-0.6,0-1.1,0.1-1.4,0.5c-0.6,0.7-0.4,1.5,0.2,2.4
		l1.1,1.7c0.9,1.3,1.4,3.2,0.1,4.6C607.2,112,606.3,112.3,605.2,112.3z"/>
	<path id="XMLID_655_" class="st0" d="M617.9,114.4l4.6,4.6l-1.3,1.3l-4.6-4.6L617.9,114.4z"/>
	<path id="XMLID_652_" class="st0" d="M628.2,128.8c-0.8,0.9-1.3,1.8-1.3,3c0,1.2,0.3,2.2,1.1,3c1.2,1.4,2.8,1.8,4.4,1.1l0.7,1.5
		c-1.1,0.5-2.2,0.6-3.4,0.3c-1.1-0.3-2.1-0.9-2.9-1.8c-0.8-0.9-1.2-1.8-1.5-2.9c-0.2-1.1-0.1-2.1,0.3-3.2c0.4-1,1-1.9,1.8-2.7
		c0.8-0.7,1.8-1.2,2.8-1.5c1.1-0.3,2.1-0.3,3.2,0c1,0.3,1.9,0.9,2.7,1.7c0.8,0.9,1.3,1.9,1.5,2.9c0.2,1,0.1,2-0.4,2.9
		c-0.4,0.9-1.1,1.8-2,2.6c-0.1,0.1-0.2,0.2-0.5,0.4L628.2,128.8z M634.7,133.9c0.8-0.8,1.2-1.8,1.2-2.7c0.1-1-0.3-1.9-1-2.7
		c-0.7-0.8-1.6-1.2-2.6-1.3c-1.1-0.1-2.1,0.2-2.9,0.7L634.7,133.9z"/>
	<path id="XMLID_650_" class="st0" d="M638.5,141.6l-6.2,0.3l-1.3-1.6l7.9-0.2l1.6-7.4l1.3,1.6l-1.3,5.8l5.9-0.3l1.3,1.6l-7.5,0.3
		l-1.7,7.7l-1.3-1.6L638.5,141.6z"/>
	<path id="XMLID_647_" class="st0" d="M646.2,158.2c-1-0.3-1.8-1-2.5-1.9c-1.2-1.6-1.5-3.4-0.7-5.3l-6.8,5.2l-1.1-1.4l14.4-11.1
		l1.1,1.4l-2.1,1.6c2.3-0.2,4,0.5,5.2,2c1,1.3,1.3,3,1,4.5c-0.4,1.5-1.2,2.9-2.5,3.9C650.4,158.4,648.2,158.9,646.2,158.2z
		 M647.7,156.8c1.2,0.1,2.3-0.3,3.3-1.1c1.4-1,2.1-2.5,2-4.1c0-0.8-0.3-1.5-0.9-2.2c-1.5-2-4.5-2.2-6.4-0.6c-1,0.8-1.7,1.8-1.9,3
		c-0.3,1.2,0,2.3,0.8,3.4C645.5,156.2,646.5,156.7,647.7,156.8z"/>
	<path id="XMLID_645_" class="st0" d="M660,157.6l-2,1.4c1.3-0.2,2.5,0.1,3.4,0.7c0.4,0.3,0.8,0.6,1,1c0.2,0.2,0.3,0.4,0.3,0.5
		l-1.5,1.1c-0.1-0.2-0.2-0.4-0.4-0.6c-1.7-2.4-4.1-1.7-5.9-0.5l-4.8,3.5l-1-1.5l9.9-7.1L660,157.6z"/>
	<path id="XMLID_642_" class="st0" d="M658.5,167.1c-1,0.7-1.5,1.6-1.7,2.8c-0.2,1.1,0,2.2,0.7,3.2c1,1.5,2.5,2.2,4.3,1.7l0.5,1.6
		c-1.1,0.4-2.3,0.3-3.4-0.1c-1.1-0.5-2-1.2-2.7-2.2c-0.6-1-1-2-1-3.1c-0.1-1.1,0.2-2.1,0.7-3.1c0.5-1,1.2-1.8,2.2-2.4
		c0.9-0.6,1.9-1,3-1.1c1.1-0.1,2.1,0,3.1,0.5c1,0.4,1.8,1.1,2.4,2c0.7,1,1,2,1.1,3.1c0,1-0.2,2-0.8,2.9c-0.5,0.9-1.3,1.6-2.3,2.3
		c-0.1,0.1-0.3,0.2-0.5,0.3L658.5,167.1z M664.3,173c0.9-0.7,1.4-1.6,1.6-2.5c0.2-1,0-1.9-0.7-2.8c-0.6-0.9-1.4-1.4-2.4-1.6
		c-1.1-0.2-2.1-0.1-3,0.3L664.3,173z"/>
	<path id="XMLID_640_" class="st0" d="M665.3,186.2c-1-0.3-1.9-1-2.5-2.1c-1-1.7-1-3.2-0.6-4.2c0.3-0.8,0.7-1.2,1.2-1.6l1.2,1.2
		c-0.9,0.8-1.6,2.2-0.5,3.9c0.4,0.6,0.8,1,1.4,1.2c0.5,0.2,1.1,0.2,1.6-0.1c0.4-0.3,0.6-0.6,0.7-1.1c0.1-0.5,0-1-0.2-1.5l-0.6-1.8
		c-0.7-1.9-0.3-3.4,1.1-4.3c1.1-0.7,2.3-0.7,3.2-0.2c0.9,0.4,1.6,1.1,2.1,1.8c0.9,1.6,1,2.9,0.5,4c-0.3,0.7-0.6,1.1-1,1.5l-1.2-1.1
		c0.4-0.4,0.6-0.7,0.8-1.3c0.2-0.6,0.1-1.4-0.4-2.2c-0.3-0.6-0.8-0.9-1.4-1.1c-0.6-0.2-1.1-0.1-1.5,0.1c-0.8,0.5-0.8,1.3-0.5,2.4
		l0.7,1.9c0.5,1.5,0.5,3.4-1.2,4.5C667.2,186.4,666.3,186.6,665.3,186.2z"/>
	<path id="XMLID_638_" class="st0" d="M670.9,195.8c-1-0.4-1.8-1.1-2.4-2.1c-1-1.7-0.9-3.2-0.4-4.3c0.3-0.8,0.8-1.2,1.2-1.6l1.2,1.2
		c-0.9,0.7-1.6,2.2-0.7,3.8c0.3,0.6,0.8,1,1.4,1.3c0.5,0.3,1.1,0.2,1.6-0.1c0.4-0.2,0.7-0.6,0.7-1.1c0.1-0.5,0-1-0.1-1.5l-0.6-1.8
		c-0.6-2-0.2-3.4,1.2-4.2c1.1-0.6,2.3-0.6,3.2-0.1c0.9,0.5,1.6,1.1,2,1.9c0.9,1.6,0.9,3,0.4,4c-0.3,0.7-0.7,1.1-1.1,1.5l-1.2-1.2
		c0.4-0.4,0.6-0.7,0.8-1.3c0.2-0.6,0.1-1.4-0.4-2.2c-0.3-0.6-0.7-1-1.3-1.2c-0.6-0.2-1.1-0.2-1.5,0.1c-0.8,0.5-0.9,1.3-0.6,2.4
		l0.6,1.9c0.5,1.6,0.4,3.4-1.3,4.4C672.8,196.1,671.9,196.2,670.9,195.8z"/>
	<path id="XMLID_636_" class="st0" d="M682.3,201.5l3,5.8l-1.7,0.9l-3-5.8L682.3,201.5z"/>
	<path id="XMLID_633_" class="st0" d="M692.2,216.2c1.5,0.4,2.8,1.5,3.5,3c0.5,1,0.6,2.1,0.4,3s-0.5,1.6-1,2.5l8.2-3.7l0.7,1.6
		l-16.9,7.6l-0.7-1.6l2.4-1.1c-2.2-0.3-3.6-1.3-4.5-3.2c-0.7-1.5-0.6-3.2,0-4.6c0.7-1.3,1.8-2.5,3.4-3.2
		C689.1,215.9,690.8,215.8,692.2,216.2z M691.9,226.1c1.5-0.7,2.5-2,2.8-3.6c0.1-0.8,0-1.6-0.3-2.3c-0.5-1.2-1.4-1.9-2.5-2.3
		c-1.1-0.3-2.3-0.2-3.6,0.3c-1.5,0.7-2.6,1.9-2.9,3.5c-0.1,0.8,0,1.6,0.3,2.3C686.8,226.4,689.7,227.2,691.9,226.1z"/>
	<path id="XMLID_630_" class="st0" d="M700.5,231l-13.7,5.6c-2.1,0.9-3.7,0.2-4.5-1.9c-0.1-0.2-0.2-0.6-0.3-1.1l1.4-0.6
		c0,0.2,0.1,0.5,0.3,0.8c0.5,1.2,1.4,1.5,2.5,1.1l13.6-5.6L700.5,231z M705.5,228c0.1,0.3,0.1,0.7,0,1c-0.2,0.3-0.4,0.6-0.7,0.7
		s-0.7,0.1-1,0c-0.3-0.2-0.6-0.4-0.7-0.7c-0.1-0.3-0.1-0.7,0-1c0.1-0.3,0.4-0.6,0.7-0.7C704.4,227,705.2,227.3,705.5,228z"/>
	<path id="XMLID_627_" class="st0" d="M699.9,243.6l0.8-0.3c1.8-0.7,2.4-2.1,1.7-4c-0.3-0.9-0.9-1.6-1.6-1.9
		c-0.6-0.3-1.3-0.4-1.9-0.2l-0.3-1.7c0.6-0.2,1.9-0.1,3.1,0.6c0.8,0.5,1.6,1.4,2.1,2.7c0.8,2.1,0.5,3.8-0.8,5
		c-0.4,0.4-1,0.8-1.7,1.1l-3.2,1.2c-1.9,0.7-3.3,1.3-4.1,1.8l-0.6-1.6c0.5-0.3,1.1-0.6,1.9-0.9c-1.8-0.4-3-1.4-3.7-3
		c-0.4-1.1-0.5-2.2-0.1-3.1c0.3-0.9,1-1.6,2-2l0.1,0c2.5-0.9,4.2,1.2,5,3.3L699.9,243.6z M698.6,244.1l-1.2-3.2
		c-0.3-0.7-0.6-1.2-1.1-1.7c-0.5-0.5-1.2-0.7-1.9-0.4c-0.6,0.2-1,0.7-1.2,1.3c-0.2,0.6-0.2,1.2,0.1,1.9c0.4,1,1,1.7,2,2.2
		c0.9,0.4,1.9,0.4,2.9,0L698.6,244.1z"/>
	<path id="XMLID_625_" class="st0" d="M698.1,259.5l6.7-2.3c1.1-0.4,1.8-0.9,2.3-1.7c0.4-0.7,0.5-1.6,0.2-2.7c-0.3-1-1-1.7-1.9-2.1
		c-0.9-0.4-1.9-0.4-2.9-0.1l-6.6,2.2l-0.6-1.7l11.5-3.9l0.6,1.6l-2.1,0.7c1.9,0.4,3.1,1.5,3.7,3.2c0.5,1.4,0.4,2.6-0.2,3.7
		c-0.6,1-1.6,1.8-3,2.3l-7.1,2.4L698.1,259.5z"/>
	<path id="XMLID_622_" class="st0" d="M705,273.2c-2.1-0.5-3.4-1.8-4-3.7c-0.3-1.1-0.3-2.1,0-3.1c0.3-1,0.8-1.9,1.6-2.6
		c0.8-0.7,1.7-1.2,2.8-1.5c1-0.3,2.1-0.4,3.1-0.2c1,0.2,2,0.6,2.8,1.3c0.8,0.7,1.4,1.6,1.7,2.6c0.3,1.1,0.3,2.1,0,3
		c-0.3,0.9-0.7,1.5-1.3,2.3l2.4-0.7l0.5,1.7l-11.4,3.3c-2,0.6-3.7,0.5-5-0.3c-1.4-0.8-2.3-2.1-2.9-4c-0.4-1.5-0.4-2.8,0.1-4.1
		c0.5-1.2,1.2-2.1,2.3-2.7l1,1.4c-1.1,0.6-2.6,2.2-1.9,4.9c0.4,1.2,1,2.2,1.9,2.8c0.9,0.6,2.3,0.8,3.9,0.3L705,273.2z M704.8,272
		c1.1,0.5,2.3,0.6,3.5,0.3c2.3-0.6,4-3.1,3.2-5.5c-0.4-1.3-1.1-2.1-2.1-2.6c-1.1-0.5-2.3-0.5-3.5-0.2c-2.4,0.6-4,2.9-3.2,5.4
		C703,270.6,703.7,271.4,704.8,272z"/>
	<path id="XMLID_619_" class="st0" d="M705,281.4c0.3-1.1,0.9-2,1.7-2.7c0.8-0.8,1.8-1.3,2.9-1.6c1.7-0.4,3.4-0.2,4.8,0.7
		c1.5,0.9,2.4,2.2,2.8,3.9c0.9,3.3-1.3,6.8-4.6,7.6c-3.4,0.9-6.9-1.2-7.7-4.7C704.7,283.5,704.7,282.4,705,281.4z M708.6,287.1
		c1.1,0.6,2.2,0.7,3.5,0.4s2.3-1,3-2c0.7-1.1,0.9-2.2,0.6-3.5c-0.3-1.2-1-2.2-2.1-2.8c-1.1-0.6-2.2-0.7-3.5-0.4
		c-2.5,0.6-4.2,3-3.6,5.5C706.8,285.5,707.5,286.5,708.6,287.1z"/>
	<path id="XMLID_617_" class="st0" d="M716.4,298l1.2,6.4l-1.9,0.4l-1.2-6.4L716.4,298z"/>
	<path id="XMLID_614_" class="st0" d="M716.9,315.8c-1.2,0.2-2.1,0.8-2.8,1.7c-0.7,0.9-0.9,2-0.8,3.1c0.2,1.8,1.3,3.1,3.1,3.4
		l-0.3,1.6c-1.2-0.2-2.2-0.7-3-1.6c-0.8-0.9-1.3-1.9-1.4-3.2c-0.2-1.1,0-2.2,0.4-3.2c0.4-1,1.1-1.9,2-2.5c0.9-0.7,1.9-1.1,3-1.2
		c1.1-0.1,2.1,0,3.2,0.3c1,0.4,1.9,1,2.6,1.8c0.7,0.8,1.1,1.8,1.3,2.9c0.2,1.2,0,2.3-0.4,3.2c-0.4,0.9-1.1,1.7-1.9,2.2
		c-0.9,0.6-1.9,0.9-3.1,1.1c-0.1,0-0.3,0-0.6,0.1L716.9,315.8z M719.5,323.6c1.1-0.3,1.9-0.8,2.6-1.6c0.6-0.8,0.8-1.7,0.7-2.8
		c-0.1-1-0.6-1.9-1.5-2.5c-0.9-0.7-1.8-1-2.8-1L719.5,323.6z"/>
	<path id="XMLID_612_" class="st0" d="M714.6,335.9c-0.8-0.8-1.2-1.8-1.3-2.9c-0.2-2,0.5-3.3,1.4-4.1c0.6-0.6,1.2-0.8,1.8-0.9
		l0.6,1.6c-1.1,0.3-2.4,1.3-2.2,3.2c0.1,0.7,0.3,1.2,0.7,1.7c0.4,0.5,0.9,0.6,1.5,0.6c0.5,0,0.9-0.3,1.1-0.7
		c0.3-0.4,0.4-0.9,0.5-1.5l0.2-1.9c0.2-2,1.2-3.2,2.9-3.3c1.2-0.1,2.3,0.4,3,1.2c0.6,0.8,1,1.7,1.1,2.5c0.2,1.8-0.4,3.1-1.2,3.8
		c-0.6,0.5-1.1,0.7-1.6,0.9l-0.6-1.6c0.5-0.2,0.8-0.4,1.3-0.8c0.4-0.5,0.7-1.2,0.6-2.1c-0.1-0.7-0.3-1.2-0.7-1.6
		c-0.4-0.4-0.9-0.6-1.4-0.5c-1,0.1-1.3,0.8-1.5,1.9l-0.2,2c-0.2,1.6-1,3.3-3,3.5C716.2,337,715.3,336.7,714.6,335.9z"/>
	<path id="XMLID_609_" class="st0" d="M728.4,342.6c-1.4-1-3.2-1.6-5.2-1.7c0.9,0.5,1.7,1.3,2.2,2.2s0.7,1.7,0.7,2.5
		c0.1,1.8-0.4,3.5-1.4,4.5s-2.4,1.7-3.9,1.8c-2,0.1-3.6-0.6-4.7-1.7c-1.1-1.2-1.7-2.6-1.8-4.2c-0.1-1,0.1-2.1,0.6-3.1
		c0.5-1,1.2-1.9,2-2.4c0.8-0.5,1.5-0.8,2.1-1c0.7-0.2,1.6-0.3,2.7-0.4c2.8-0.2,5.4,0.5,7.4,1.8c1.9,1.3,3.2,3.6,3.4,6.3
		c0.1,1.5-0.1,2.7-0.6,3.7l-1.7-0.6c0.5-0.9,0.6-2.1,0.6-3C730.7,345.3,729.8,343.6,728.4,342.6z M723.2,342.5
		c-0.8-0.8-2-1.3-3.2-1.2c-0.9,0.1-1.6,0.3-2.2,0.8c-0.6,0.5-1.1,1-1.4,1.7c-0.3,0.7-0.4,1.4-0.4,2.2c0.1,2.3,1.7,4.3,4.5,4.2
		c1.1-0.1,2.1-0.5,2.8-1.4c0.8-0.9,1.1-2,1-3.3C724.4,344.4,723.9,343.4,723.2,342.5z"/>
	<path id="XMLID_607_" class="st0" d="M723.2,361.3l0.1,6.5l-1.9,0l-0.1-6.5L723.2,361.3z"/>
	<path id="XMLID_605_" class="st0" d="M715.6,384.7c-0.7-0.9-1-1.9-0.9-3.1c0.1-2,0.9-3.2,1.9-3.8c0.7-0.5,1.3-0.6,1.9-0.7l0.4,1.6
		c-1.1,0.2-2.5,1-2.6,2.9c0,0.7,0.1,1.3,0.5,1.8c0.3,0.5,0.8,0.8,1.4,0.8c0.5,0,0.9-0.2,1.2-0.5c0.3-0.4,0.5-0.8,0.7-1.4l0.5-1.8
		c0.5-2,1.6-3,3.3-2.9c1.2,0,2.3,0.7,2.8,1.6c0.5,0.9,0.7,1.8,0.7,2.6c-0.1,1.8-0.8,3-1.8,3.6c-0.6,0.4-1.2,0.6-1.7,0.7l-0.4-1.6
		c0.5-0.1,0.9-0.3,1.4-0.7c0.5-0.4,0.8-1.1,0.9-2c0-0.7-0.1-1.2-0.5-1.7c-0.3-0.5-0.8-0.7-1.3-0.7c-1,0-1.4,0.6-1.7,1.7l-0.5,1.9
		c-0.4,1.6-1.5,3.1-3.4,3.1C717.1,386,716.2,385.5,715.6,384.7z"/>
	<path id="XMLID_603_" class="st0" d="M714.4,391.5l12.5-4.3l-0.1,2l-10.5,3.4l9.9,4.9l-0.1,1.9l-11.8-6L714.4,391.5z"/>
	<path id="XMLID_600_" class="st0" d="M715.4,409.8c-1.7-1.3-2.5-3-2.2-5c0.1-1.1,0.5-2.1,1.2-2.9s1.5-1.4,2.5-1.8
		c1-0.4,2-0.5,3.1-0.4c1.1,0.1,2,0.4,2.9,1c0.9,0.6,1.6,1.3,2.1,2.3c0.5,0.9,0.7,2,0.6,3.1c-0.1,1.1-0.5,2.1-1.2,2.8
		c-0.6,0.7-1.3,1.1-2.1,1.6l2.5,0.3l-0.2,1.8l-11.8-1.3c-2.1-0.2-3.6-1-4.5-2.2c-0.9-1.3-1.3-2.9-1.1-4.8c0.2-1.5,0.7-2.8,1.6-3.7
		c0.9-1,2-1.5,3.2-1.6l0.4,1.7c-1.3,0.2-3.3,1.1-3.6,3.8c-0.1,1.3,0.1,2.4,0.7,3.3c0.6,0.9,1.8,1.6,3.5,1.8L715.4,409.8z
		 M715.7,408.6c0.8,0.9,1.9,1.5,3.1,1.6c2.4,0.3,4.9-1.4,5.1-3.8c0.1-1.3-0.2-2.4-1-3.2c-0.8-0.9-1.9-1.4-3.2-1.5
		c-2.5-0.3-4.8,1.1-5,3.7C714.6,406.6,714.9,407.7,715.7,408.6z"/>
	<path id="XMLID_597_" class="st0" d="M716.8,429.7l0.8,0.1c1.9,0.3,3.1-0.6,3.4-2.6c0.2-1,0-1.8-0.4-2.4c-0.4-0.6-0.9-0.9-1.5-1.1
		l0.6-1.6c0.6,0.1,1.7,0.9,2.4,2.1c0.4,0.8,0.7,2.1,0.5,3.4c-0.4,2.2-1.4,3.5-3.2,4c-0.6,0.1-1.3,0.2-2,0L714,431
		c-2-0.3-3.5-0.5-4.4-0.5l0.3-1.7c0.5,0,1.3,0,2.1,0.2c-1.4-1.3-1.9-2.7-1.6-4.4c0.2-1.2,0.7-2.1,1.5-2.7c0.8-0.6,1.7-0.9,2.7-0.7
		l0.1,0c2.6,0.4,3,3.2,2.7,5.3L716.8,429.7z M715.4,429.5l0.6-3.4c0.1-0.7,0.1-1.4-0.1-2c-0.2-0.6-0.7-1.2-1.4-1.3
		c-0.7-0.1-1.2,0-1.7,0.5c-0.5,0.4-0.8,1-0.9,1.7c-0.2,1.1,0,2,0.6,2.9c0.6,0.8,1.4,1.3,2.5,1.5L715.4,429.5z"/>
	<path id="XMLID_595_" class="st0" d="M707.2,442.5l6.9,1.4c1.1,0.2,2,0.1,2.8-0.3c0.8-0.4,1.3-1.2,1.5-2.2c0.2-1,0-2-0.5-2.8
		c-0.6-0.8-1.4-1.3-2.5-1.5l-6.8-1.4l0.4-1.8l11.9,2.5l-0.4,1.7l-2.2-0.5c1.4,1.3,1.9,2.8,1.5,4.6c-0.3,1.4-1,2.4-2,3.1
		c-1,0.6-2.3,0.8-3.7,0.5l-7.4-1.5L707.2,442.5z"/>
	<path id="XMLID_592_" class="st0" d="M717.8,450.8l-0.4,1.7l-11.8-2.8l0.4-1.7L717.8,450.8z M722.1,451.3c0.4,0.1,0.6,0.3,0.8,0.6
		c0.2,0.3,0.2,0.7,0.2,1s-0.3,0.6-0.6,0.8c-0.3,0.2-0.7,0.2-1,0.2s-0.6-0.3-0.8-0.6c-0.2-0.3-0.3-0.6-0.2-1s0.3-0.7,0.6-0.8
		C721.4,451.3,721.8,451.3,722.1,451.3z"/>
	<path id="XMLID_590_" class="st0" d="M702.5,461.5l6.9,1.9c1,0.3,1.9,0.3,2.7,0c0.8-0.3,1.3-1,1.6-2c0.3-1,0.1-1.9-0.4-2.7
		c-0.6-0.8-1.4-1.3-2.4-1.6l-6.7-1.9l0.5-1.7l11.7,3.3l-0.5,1.7l-2-0.6c1.2,1.4,1.6,2.8,1.2,4.4c-0.5,1.7-1.7,2.8-3.4,3.1
		c1.3,1.4,1.7,3,1.2,4.8c-0.4,1.4-1.1,2.3-2.2,2.8c-1.1,0.5-2.3,0.6-3.7,0.2l-7.2-2l0.5-1.7l6.8,1.9c1.1,0.3,2,0.3,2.8,0
		c0.8-0.3,1.3-1,1.6-2c0.3-1,0.1-1.9-0.4-2.7c-0.5-0.8-1.3-1.3-2.3-1.6l-6.7-1.9L702.5,461.5z"/>
	<path id="XMLID_587_" class="st0" d="M702.9,483.8l0.8,0.3c1.9,0.6,3.2-0.1,3.8-2c0.3-0.9,0.3-1.8,0-2.4c-0.3-0.6-0.8-1.1-1.3-1.4
		l0.9-1.5c0.6,0.2,1.5,1.2,2,2.5c0.3,0.9,0.3,2.1-0.1,3.4c-0.7,2.1-2,3.2-3.8,3.4c-0.6,0.1-1.3,0-2-0.3l-3.3-1.1
		c-1.9-0.6-3.4-1.1-4.3-1.2l0.6-1.7c0.5,0.1,1.2,0.2,2.1,0.5c-1.2-1.5-1.5-3-0.9-4.7c0.4-1.1,1-2,1.9-2.5c0.9-0.5,1.8-0.6,2.8-0.3
		l0.1,0c2.5,0.8,2.5,3.6,1.8,5.7L702.9,483.8z M701.5,483.3l1.1-3.2c0.2-0.7,0.3-1.3,0.2-2c-0.1-0.7-0.5-1.2-1.2-1.5
		c-0.7-0.2-1.2-0.1-1.8,0.2c-0.5,0.3-0.9,0.9-1.1,1.6c-0.3,1-0.3,2,0.2,2.9c0.4,0.9,1.2,1.5,2.2,1.9L701.5,483.3z"/>
	<path id="XMLID_585_" class="st0" d="M697.2,488.3l7,2.6l0.8-2.1l1.5,0.5l-0.8,2.1l3.3,1.2l-0.6,1.7l-3.3-1.2L704,496l-1.5-0.5
		l1.1-2.9l-7-2.6c-1.1-0.4-1.8,0-2.3,1.3c-0.1,0.4-0.2,0.8-0.3,1.1l-1.4-0.5c0-0.4,0.1-0.9,0.3-1.4
		C693.8,488,695.5,487.7,697.2,488.3z"/>
	<path id="XMLID_582_" class="st0" d="M702.8,498.9l-0.7,1.7l-11.3-4.4l0.7-1.7L702.8,498.9z M707,500.1c0.3,0.1,0.6,0.4,0.7,0.7
		c0.1,0.3,0.2,0.7,0,1c-0.1,0.3-0.4,0.6-0.7,0.7c-0.3,0.2-0.7,0.2-1,0c-0.3-0.1-0.6-0.4-0.7-0.7c-0.1-0.3-0.2-0.7,0-1
		c0.1-0.3,0.4-0.6,0.7-0.7C706.4,500,706.7,500,707,500.1z"/>
	<path id="XMLID_579_" class="st0" d="M689.1,502.1c0.9-0.7,1.9-1.1,3-1.2c1.1-0.1,2.2,0,3.2,0.5c1.6,0.7,2.8,1.8,3.4,3.4
		c0.7,1.6,0.6,3.2-0.1,4.8c-1.3,3.2-5.1,4.7-8.2,3.3c-3.3-1.3-4.8-5.1-3.3-8.3C687.5,503.6,688.2,502.8,689.1,502.1z M688.6,508.8
		c0.5,1.1,1.4,1.9,2.6,2.4c1.2,0.5,2.4,0.6,3.6,0.2c1.2-0.4,2-1.2,2.6-2.4c0.5-1.2,0.5-2.3,0-3.5s-1.4-1.9-2.6-2.5
		c-2.3-1-5.2-0.1-6.1,2.3C688,506.5,688.1,507.7,688.6,508.8z"/>
	<path id="XMLID_577_" class="st0" d="M679.8,521.2l6.4,3c1,0.5,1.9,0.6,2.8,0.4c0.8-0.2,1.5-0.8,2-1.8c0.5-1,0.5-1.9,0.1-2.8
		c-0.4-0.9-1-1.6-2-2.1l-6.3-3l0.8-1.6l11,5.2l-0.7,1.6l-2-1c1.1,1.6,1.2,3.2,0.4,4.9c-0.6,1.3-1.5,2.1-2.7,2.5
		c-1.2,0.3-2.4,0.2-3.7-0.4l-6.8-3.2L679.8,521.2z"/>
	<path id="XMLID_575_" class="st0" d="M675,532.5c-0.2-1.1,0-2.1,0.5-3.2c0.9-1.7,2.2-2.5,3.4-2.6c0.8-0.1,1.4,0,2,0.2l-0.4,1.6
		c-1.1-0.3-2.7-0.2-3.6,1.5c-0.3,0.6-0.4,1.2-0.3,1.8c0.1,0.6,0.4,1,0.9,1.3c0.4,0.2,0.9,0.2,1.3,0c0.5-0.2,0.9-0.5,1.2-0.9l1.2-1.5
		c1.3-1.6,2.8-2,4.2-1.2c1.1,0.6,1.7,1.6,1.8,2.7c0.1,1-0.1,2-0.5,2.7c-0.9,1.6-2,2.3-3.1,2.5c-0.7,0.1-1.3,0-1.8-0.1l0.3-1.6
		c0.5,0.1,0.9,0.1,1.5,0c0.6-0.1,1.2-0.7,1.6-1.5c0.3-0.6,0.4-1.1,0.3-1.7c-0.1-0.6-0.4-1-0.9-1.2c-0.8-0.4-1.6,0-2.3,0.8l-1.3,1.5
		c-1.1,1.2-2.7,2.2-4.4,1.3C675.7,534.3,675.2,533.5,675,532.5z"/>
	<path id="XMLID_573_" class="st0" d="M676.2,545.2l-3.3,5.6l-1.6-1l3.3-5.6L676.2,545.2z"/>
	<path id="XMLID_571_" class="st0" d="M657.8,561.3c-0.1-1.1,0.2-2.1,0.8-3.1c1.1-1.6,2.4-2.3,3.6-2.3c0.8,0,1.4,0.1,2,0.4l-0.5,1.6
		c-1.1-0.5-2.7-0.5-3.7,1.1c-0.4,0.6-0.5,1.2-0.5,1.8c0,0.6,0.3,1.1,0.8,1.4c0.4,0.3,0.8,0.3,1.3,0.1c0.5-0.2,0.9-0.4,1.3-0.8
		l1.4-1.3c1.5-1.4,2.9-1.7,4.3-0.8c1,0.7,1.6,1.8,1.5,2.8c0,1-0.3,1.9-0.8,2.6c-1,1.5-2.3,2.1-3.3,2.2c-0.8,0-1.3-0.1-1.8-0.3
		l0.5-1.6c0.5,0.2,0.9,0.2,1.5,0.2c0.6-0.1,1.3-0.5,1.8-1.3c0.4-0.6,0.5-1.1,0.4-1.7c-0.1-0.6-0.3-1-0.8-1.3
		c-0.8-0.5-1.5-0.2-2.4,0.6l-1.4,1.4c-1.2,1.1-2.9,1.9-4.5,0.9C658.4,563.2,657.9,562.4,657.8,561.3z"/>
	<path id="XMLID_568_" class="st0" d="M664.7,571.3l-1,1.5l-10-6.9l1-1.5L664.7,571.3z M668.5,573.4c0.3,0.2,0.5,0.5,0.6,0.9
		c0.1,0.3,0,0.7-0.2,1c-0.2,0.3-0.5,0.5-0.9,0.5c-0.4,0.1-0.7,0-1-0.2c-0.3-0.2-0.5-0.5-0.6-0.9c-0.1-0.3,0-0.7,0.2-1
		s0.5-0.5,0.9-0.6C667.9,573.1,668.2,573.2,668.5,573.4z"/>
	<path id="XMLID_566_" class="st0" d="M646.6,575.8l5.7,4.3c0.8,0.6,1.7,0.9,2.6,0.9c0.9,0,1.6-0.5,2.2-1.3c0.6-0.8,0.8-1.7,0.6-2.7
		s-0.8-1.7-1.6-2.4l-5.6-4.1l1.1-1.4l9.8,7.3l-1,1.4l-1.7-1.3c0.6,1.8,0.5,3.2-0.5,4.6c-1.1,1.4-2.6,2-4.3,1.7
		c0.7,1.8,0.5,3.4-0.6,4.9c-0.8,1.1-1.9,1.8-3.1,1.9c-1.2,0.1-2.3-0.3-3.5-1.2l-6-4.5l1.1-1.4l5.7,4.2c0.9,0.7,1.7,1,2.6,1
		c0.8,0,1.6-0.4,2.2-1.3c0.6-0.8,0.8-1.7,0.6-2.6c-0.2-0.9-0.7-1.7-1.6-2.3l-5.6-4.2L646.6,575.8z"/>
	<path id="XMLID_563_" class="st0" d="M632.7,594.4c0.1-1.1,0.5-2,1.2-2.9c1.3-1.5,2.9-2.2,5-1.9l-6.5-5.4l1.1-1.4l14,11.6l-1.1,1.3
		l-2-1.7c0.7,2.2,0.4,4-0.8,5.5c-1.1,1.3-2.6,2-4.2,2c-1.5,0-3.1-0.6-4.3-1.6C633.4,598.5,632.5,596.5,632.7,594.4z M634.4,595.5
		c0.2,1.2,0.8,2.2,1.8,3c1.3,1.1,2.9,1.5,4.4,1.1c0.7-0.2,1.4-0.7,2-1.3c1.6-1.9,1.1-4.9-0.8-6.3c-1-0.8-2.1-1.2-3.3-1.2
		c-1.3,0-2.3,0.5-3.1,1.5C634.5,593.2,634.2,594.3,634.4,595.5z"/>
	<path id="XMLID_561_" class="st0" d="M642.4,610.6l-1.2,1.3l-13.9-12.3l1.2-1.3L642.4,610.6z"/>
	<path id="XMLID_558_" class="st0" d="M628.1,607c-0.9-0.8-1.9-1.1-3.1-1c-1.2,0.1-2.1,0.5-2.9,1.4c-1.3,1.3-1.5,3-0.7,4.5l-1.4,0.8
		c-0.6-1-0.8-2.1-0.6-3.3c0.2-1.2,0.7-2.2,1.6-3.1c0.8-0.8,1.7-1.4,2.8-1.7c1.1-0.3,2.1-0.3,3.2,0c1.1,0.3,2,0.8,2.9,1.6
		c0.8,0.8,1.4,1.6,1.7,2.7c0.4,1,0.5,2.1,0.2,3.1c-0.2,1.1-0.7,2-1.4,2.8c-0.8,0.9-1.7,1.5-2.7,1.7c-1,0.3-2,0.2-3-0.1
		c-1-0.3-1.9-0.9-2.8-1.7c-0.1-0.1-0.2-0.2-0.4-0.4L628.1,607z M623.7,613.9c0.9,0.7,1.9,1,2.8,1c1,0,1.8-0.5,2.6-1.3
		c0.7-0.8,1.1-1.7,1-2.7c0-1.1-0.3-2-1-2.8L623.7,613.9z"/>
	<path id="XMLID_556_" class="st0" d="M606.5,622.2c0.1-1.1,0.6-2,1.5-2.9c1.4-1.4,2.9-1.7,4-1.4c0.8,0.1,1.3,0.4,1.8,0.8l-0.9,1.4
		c-0.9-0.7-2.5-1.1-3.9,0.3c-0.5,0.5-0.8,1-0.9,1.6c-0.1,0.6,0,1.1,0.5,1.6c0.3,0.4,0.8,0.5,1.2,0.4c0.5,0,1-0.2,1.4-0.5l1.6-1
		c1.8-1.1,3.2-1,4.4,0.2c0.9,0.9,1.1,2.1,0.9,3.1c-0.2,1-0.7,1.8-1.3,2.4c-1.3,1.3-2.7,1.6-3.8,1.4c-0.7-0.1-1.2-0.4-1.7-0.7
		l0.8-1.5c0.4,0.3,0.8,0.4,1.5,0.5c0.6,0.1,1.4-0.2,2-0.9c0.5-0.5,0.7-1,0.8-1.6c0.1-0.6-0.1-1.1-0.5-1.5c-0.7-0.7-1.5-0.5-2.4,0
		l-1.7,1c-1.4,0.8-3.2,1.2-4.6-0.2C606.6,624.2,606.3,623.3,606.5,622.2z"/>
	<path id="XMLID_554_" class="st0" d="M596.3,630.4l4.7,5.3c0.8,0.8,1.5,1.3,2.4,1.4c0.9,0.1,1.7-0.2,2.5-0.9
		c0.8-0.7,1.2-1.6,1.2-2.6c0-1-0.3-1.9-1.1-2.7l-4.6-5.2l1.3-1.2l12.4,13.8l-1.3,1.2l-5.7-6.4c0.4,1.8-0.1,3.4-1.5,4.6
		c-1.1,1-2.2,1.4-3.4,1.3c-1.2-0.2-2.3-0.7-3.3-1.8l-5-5.6L596.3,630.4z"/>
	<path id="XMLID_551_" class="st0" d="M591,644.1l0.5,0.6c1.3,1.5,2.7,1.6,4.3,0.3c0.8-0.6,1.2-1.4,1.3-2.1s-0.1-1.3-0.4-1.8
		l1.6-0.8c0.4,0.5,0.7,1.8,0.4,3.2c-0.2,0.9-0.8,2-1.8,2.8c-1.7,1.4-3.4,1.7-5,0.9c-0.5-0.3-1.1-0.7-1.6-1.3l-2.2-2.6
		c-1.3-1.6-2.3-2.7-3-3.3l1.4-1.1c0.4,0.4,0.9,0.9,1.5,1.5c-0.2-1.9,0.3-3.3,1.7-4.4c0.9-0.8,1.9-1.1,2.9-1.1c1,0,1.9,0.4,2.5,1.2
		l0.1,0.1c1.7,2,0.2,4.4-1.5,5.8L591,644.1z M590,643l2.6-2.2c0.5-0.5,1-1,1.3-1.6c0.3-0.6,0.2-1.3-0.2-1.9c-0.4-0.5-1-0.8-1.6-0.7
		c-0.6,0-1.2,0.3-1.8,0.7c-0.8,0.7-1.3,1.5-1.4,2.6c-0.1,1,0.2,1.9,0.9,2.8L590,643z"/>
	<path id="XMLID_548_" class="st0" d="M588,650.9c0,1.5-0.8,3.1-2.1,4.1c-0.9,0.7-1.9,1-2.8,1.1c-0.9,0-1.7-0.1-2.6-0.4l5.4,7.1
		l-1.4,1.1L573.2,649l1.4-1.1l1.6,2.1c-0.2-2.2,0.5-3.9,2.1-5.1c1.3-1,3-1.4,4.5-1c1.5,0.3,2.9,1.2,3.9,2.5
		C587.6,647.7,588.1,649.3,588,650.9z M578.3,652.8c1,1.3,2.5,2,4.1,1.9c0.8-0.1,1.6-0.4,2.2-0.8c1-0.8,1.6-1.8,1.6-2.9
		c0.1-1.2-0.3-2.3-1.1-3.4c-1-1.3-2.4-2.1-4-2c-0.8,0.1-1.5,0.3-2.2,0.9C576.9,647.9,576.8,650.9,578.3,652.8z"/>
	<path id="XMLID_545_" class="st0" d="M572.6,656.3c-0.8-0.9-1.7-1.5-2.8-1.7c-1.1-0.2-2.2,0.1-3.2,0.7c-1.5,1.1-2.1,2.6-1.6,4.3
		l-1.6,0.5c-0.4-1.1-0.4-2.3,0.1-3.4c0.4-1.1,1.1-2,2.2-2.7c0.9-0.7,2-1,3.1-1.1s2.1,0.1,3.1,0.6c1,0.5,1.8,1.2,2.5,2.1
		c0.6,0.9,1,1.9,1.2,3c0.2,1.1,0,2.1-0.4,3.1c-0.4,1-1.1,1.8-2,2.5c-1,0.7-2,1.1-3,1.1c-1,0.1-2-0.2-2.9-0.7
		c-0.9-0.5-1.7-1.3-2.4-2.3c-0.1-0.1-0.2-0.3-0.3-0.5L572.6,656.3z M566.8,662.2c0.7,0.9,1.6,1.4,2.6,1.5c1,0.2,1.9-0.1,2.8-0.7
		c0.9-0.6,1.4-1.4,1.6-2.5c0.2-1.1,0.1-2.1-0.4-3L566.8,662.2z"/>
	<path id="XMLID_543_" class="st0" d="M564.1,670.2l-1.3-2c0.2,1.3-0.2,2.5-0.8,3.3c-0.3,0.4-0.7,0.7-1.1,1
		c-0.2,0.1-0.4,0.3-0.5,0.3l-1-1.6c0.2-0.1,0.4-0.2,0.6-0.3c2.4-1.6,1.9-4.1,0.7-5.9l-3.3-5l1.5-1l6.7,10.2L564.1,670.2z"/>
	<path id="XMLID_541_" class="st0" d="M546.6,667.8c0.3-1,1-1.9,2.1-2.5c1.7-1,3.2-1,4.2-0.5c0.8,0.3,1.2,0.7,1.6,1.2l-1.2,1.2
		c-0.8-0.9-2.2-1.6-3.9-0.6c-0.6,0.4-1,0.8-1.2,1.4c-0.2,0.5-0.2,1.1,0.1,1.6c0.3,0.4,0.6,0.6,1.1,0.7c0.5,0.1,1,0,1.5-0.2l1.8-0.6
		c1.9-0.7,3.4-0.3,4.3,1.1c0.7,1.1,0.7,2.3,0.2,3.2c-0.4,0.9-1.1,1.6-1.8,2.1c-1.6,0.9-3,1-4,0.5c-0.7-0.3-1.1-0.6-1.5-1l1.1-1.2
		c0.4,0.4,0.7,0.6,1.3,0.8c0.6,0.2,1.4,0.1,2.2-0.4c0.6-0.3,0.9-0.8,1.1-1.4c0.2-0.6,0.1-1.1-0.1-1.5c-0.5-0.8-1.3-0.8-2.4-0.5
		l-1.9,0.7c-1.5,0.5-3.4,0.5-4.5-1.2C546.4,669.8,546.2,668.8,546.6,667.8z"/>
	<path id="XMLID_539_" class="st0" d="M533.1,674.7l1.7-0.9l9.3,8.8l-1.6,0.9l-7.6-7.4l1.8,10.5l-1.6,0.9l-7.7-7.4l0,0l1.9,10.4
		l-1.6,0.9l-2.1-12.7l1.7-0.9l7.5,7.2l0,0L533.1,674.7z"/>
	<path id="XMLID_536_" class="st0" d="M525.1,692.5l-1.6,0.8l-5.3-10.9l1.6-0.8L525.1,692.5z M527.4,696.2c0.2,0.3,0.2,0.7,0.1,1
		c-0.1,0.3-0.4,0.6-0.7,0.8c-0.3,0.2-0.7,0.2-1,0.1c-0.4-0.1-0.6-0.4-0.8-0.7s-0.2-0.7-0.1-1c0.1-0.3,0.3-0.6,0.7-0.8
		c0.3-0.2,0.7-0.2,1-0.1C527,695.7,527.2,695.9,527.4,696.2z"/>
	<path id="XMLID_534_" class="st0" d="M515.2,687.3l3.1,6.8l2-0.9l0.7,1.4l-2,0.9l1.5,3.2l-1.6,0.7l-1.5-3.2l-2.8,1.3l-0.7-1.4
		l2.8-1.3l-3.1-6.7c-0.5-1-1.3-1.3-2.5-0.7c-0.4,0.2-0.7,0.4-1,0.6l-0.6-1.3c0.3-0.3,0.7-0.5,1.2-0.8
		C513.1,684.6,514.4,685.6,515.2,687.3z"/>
	<path id="XMLID_532_" class="st0" d="M498.8,691l2.8,6.5c0.4,1,1,1.7,1.8,2.1c0.8,0.4,1.7,0.4,2.7-0.1c1-0.4,1.6-1.1,2-2
		c0.3-0.9,0.3-1.9-0.1-2.9l-2.7-6.4l1.6-0.7l7.3,17.1l-1.6,0.7l-3.3-7.9c-0.2,1.9-1.2,3.1-2.9,3.8c-1.3,0.6-2.5,0.6-3.7,0.1
		c-1.1-0.5-1.9-1.4-2.5-2.8l-2.9-6.9L498.8,691z"/>
	<path id="XMLID_529_" class="st0" d="M479.7,701.1c0.4-2.1,1.6-3.5,3.5-4.2c1.1-0.4,2.1-0.4,3.1-0.2c1,0.2,1.9,0.7,2.6,1.5
		c0.8,0.7,1.3,1.6,1.7,2.7c0.4,1,0.5,2,0.4,3.1c-0.1,1-0.5,2-1.1,2.8c-0.6,0.9-1.5,1.5-2.5,1.9c-1.1,0.4-2.1,0.4-3,0.2
		c-0.9-0.3-1.6-0.6-2.3-1.2l0.9,2.4l-1.7,0.6l-4-11.2c-0.7-2-0.7-3.7,0-5.1c0.7-1.4,2-2.4,3.8-3.1c1.4-0.5,2.8-0.5,4-0.2
		c1.3,0.4,2.2,1.1,2.8,2.2l-1.3,1c-0.7-1.1-2.4-2.5-5-1.6c-1.2,0.4-2.1,1.1-2.7,2.1c-0.6,1-0.6,2.3-0.1,3.9L479.7,701.1z
		 M480.9,700.9c-0.5,1.1-0.5,2.3-0.1,3.5c0.7,2.3,3.4,3.8,5.7,2.9c1.2-0.4,2.1-1.2,2.5-2.3c0.4-1.1,0.4-2.3,0-3.5
		c-0.8-2.4-3.1-3.8-5.6-2.9C482.2,699,481.4,699.7,480.9,700.9z"/>
	<path id="XMLID_527_" class="st0" d="M479.1,718l-1.7,0.5l-5.7-17.7l1.7-0.5L479.1,718z"/>
	<path id="XMLID_525_" class="st0" d="M461.7,704.8c0.6-0.9,1.5-1.5,2.6-1.9c1.9-0.6,3.3-0.1,4.2,0.6c0.7,0.5,1,1,1.2,1.6l-1.4,0.9
		c-0.5-1-1.7-2.1-3.6-1.6c-0.7,0.2-1.2,0.5-1.6,1c-0.4,0.5-0.5,1-0.3,1.6c0.1,0.5,0.4,0.8,0.9,1c0.5,0.2,1,0.3,1.5,0.2l1.9-0.1
		c2.1-0.1,3.3,0.6,3.8,2.2c0.4,1.2,0,2.4-0.7,3.1c-0.7,0.8-1.5,1.3-2.3,1.5c-1.8,0.5-3.1,0.1-4-0.5c-0.6-0.5-0.9-0.9-1.2-1.4
		l1.4-0.9c0.3,0.4,0.6,0.8,1.1,1.1c0.5,0.4,1.3,0.4,2.2,0.2c0.6-0.2,1.1-0.5,1.4-1c0.3-0.5,0.4-1,0.3-1.5c-0.3-0.9-1.1-1.1-2.2-1.1
		l-2,0.1c-1.6,0.1-3.4-0.4-4-2.3C461,706.6,461.1,705.6,461.7,704.8z"/>
	<path id="XMLID_523_" class="st0" d="M462.1,723.1l-1.7,0.5l-4.8-18l1.7-0.5L462.1,723.1z"/>
	<path id="XMLID_521_" class="st0" d="M447.7,715.9l-6.4,1.4l-0.4-1.8l6.4-1.4L447.7,715.9z"/>
	<path id="XMLID_519_" class="st0" d="M425.4,712.2l1.9-0.3l6,11.4l-1.8,0.3l-4.8-9.5l-1.6,10.5l-1.8,0.3l-4.9-9.5l0,0l-1.6,10.5
		l-1.8,0.3l2.1-12.7l1.9-0.3l4.8,9.3l0,0L425.4,712.2z"/>
	<path id="XMLID_516_" class="st0" d="M410.9,719.9c-0.2-1.2-0.8-2.1-1.7-2.8c-0.9-0.7-2-1-3.1-0.8c-1.8,0.2-3.1,1.3-3.5,3l-1.6-0.3
		c0.2-1.2,0.8-2.2,1.7-2.9c0.9-0.7,2-1.2,3.2-1.4c1.1-0.1,2.2,0,3.2,0.5s1.8,1.1,2.5,2c0.6,0.9,1,1.9,1.2,3c0.1,1.1,0,2.1-0.4,3.2
		c-0.4,1-1,1.9-1.9,2.6c-0.8,0.7-1.8,1.1-2.9,1.2c-1.2,0.1-2.3,0-3.2-0.5c-0.9-0.4-1.7-1.1-2.2-2c-0.5-0.9-0.9-1.9-1-3.1
		c0-0.1,0-0.3,0-0.6L410.9,719.9z M403.1,722.4c0.3,1.1,0.8,2,1.5,2.6c0.8,0.6,1.7,0.8,2.8,0.7c1-0.1,1.9-0.6,2.6-1.4
		c0.7-0.8,1.1-1.8,1.1-2.8L403.1,722.4z"/>
	<path id="XMLID_513_" class="st0" d="M388.2,717.3c0.8-0.7,1.8-1,2.9-1.1c2-0.1,3.6,0.6,4.9,2.4l-0.2-2.6l1.7-0.1l1.4,18.5
		l-1.8,0.1l-0.7-9c-1.1,2-2.6,3-4.5,3.2c-1.7,0.1-3.3-0.5-4.3-1.6c-1-1.1-1.7-2.6-1.9-4.2C385.7,720.6,386.5,718.6,388.2,717.3z
		 M388.6,719.2c-0.7,1-1,2.1-0.9,3.4c0.1,1.7,0.9,3.2,2.3,3.9c0.7,0.4,1.5,0.6,2.3,0.5c2.5-0.1,4.3-2.6,4-5
		c-0.1-1.3-0.6-2.4-1.5-3.2c-0.9-0.9-2-1.3-3.2-1.2C390.3,717.8,389.3,718.3,388.6,719.2z"/>
	<path id="XMLID_510_" class="st0" d="M373,717.9c0.9-0.6,1.9-0.9,3-1c2-0.1,3.6,0.8,4.8,2.5l-0.3-8.5l1.8-0.1l0.6,18.2l-1.7,0.1
		l-0.1-2.6c-1.2,1.9-2.7,3-4.6,3c-1.7,0.1-3.2-0.7-4.2-1.8c-1-1.1-1.6-2.7-1.7-4.3C370.4,721.2,371.3,719.1,373,717.9z M373.3,719.9
		c-0.7,0.9-1.1,2-1,3.4c0.1,1.7,0.8,3.2,2.1,4c0.7,0.4,1.4,0.6,2.3,0.6c2.5,0,4.4-2.4,4.2-4.8c0-1.3-0.5-2.4-1.3-3.3
		c-0.9-0.9-1.9-1.4-3.2-1.3C375.1,718.5,374.1,719,373.3,719.9z"/>
	<path id="XMLID_507_" class="st0" d="M359.9,724.2l0,0.8c0,2,1,3,3.1,3c1,0,1.8-0.3,2.3-0.8c0.5-0.5,0.8-1,0.9-1.7l1.7,0.4
		c0,0.6-0.6,1.8-1.8,2.7c-0.7,0.6-1.9,1-3.2,1c-2.2,0-3.7-0.9-4.4-2.6c-0.2-0.6-0.3-1.2-0.3-2l0.1-3.4c0-2,0-3.5-0.1-4.4l1.8,0
		c0.1,0.5,0.2,1.3,0.1,2.1c1.1-1.6,2.4-2.3,4.2-2.3c1.2,0,2.2,0.4,2.9,1.1c0.7,0.7,1.1,1.5,1.1,2.6l0,0.1c0,2.6-2.7,3.5-4.9,3.4
		L359.9,724.2z M359.9,722.7l3.4,0.1c0.7,0,1.4-0.1,2-0.4c0.6-0.3,1-0.8,1.1-1.6c0-0.7-0.2-1.2-0.7-1.6c-0.5-0.4-1.1-0.6-1.9-0.6
		c-1.1,0-2,0.3-2.7,1c-0.7,0.7-1.1,1.6-1.1,2.7L359.9,722.7z"/>
	<path id="XMLID_505_" class="st0" d="M351.4,719c-0.7-0.5-1.4-0.8-2.3-0.8c-1,0-1.9,0.3-2.5,0.6c-0.3,0.2-0.5,0.4-0.8,0.7
		c-0.5,0.6-0.7,1-0.9,1.4l-1.6-0.6c0.3-0.9,1-1.8,2-2.6c1-0.7,2.4-1.2,3.9-1.1c3.5,0.1,6.1,3,5.9,6.5c-0.1,1.2-0.4,2.3-1,3.2
		c-0.6,1-1.4,1.7-2.4,2.2s-2,0.7-3.2,0.7c-1.4-0.1-2.6-0.5-3.6-1.3c-1-0.8-1.6-1.8-1.8-2.9l1.6-0.5c0.2,1,1.4,2.9,3.9,3
		c1.3,0.1,2.3-0.3,3.2-1.2c0.9-0.9,1.3-2,1.4-3.2C353.4,721.5,352.7,719.9,351.4,719z"/>
	<path id="XMLID_503_" class="st0" d="M338.4,722.3l0.5-6.1l1.8,0.1l-1.5,18.5l-1.8-0.1l0.9-11.3l-6.2,4.5l-2.5-0.2l6.8-4.9
		l-6.1-7.2l2.5,0.2L338.4,722.3L338.4,722.3z"/>
	<path id="XMLID_501_" class="st0" d="M321.4,722.6l-6.5-0.9l0.2-1.9l6.5,0.9L321.4,722.6z"/>
	<path id="XMLID_498_" class="st0" d="M296.4,713.1c1.4-1.6,3.1-2.2,5.1-1.9c1.1,0.2,2,0.7,2.8,1.4c0.8,0.7,1.3,1.6,1.6,2.6
		c0.3,1,0.3,2.1,0.1,3.2c-0.2,1.1-0.6,2-1.2,2.9c-0.6,0.8-1.4,1.5-2.4,1.9c-1,0.4-2,0.5-3.1,0.3c-1.1-0.2-2-0.7-2.7-1.4
		c-0.6-0.7-1-1.3-1.4-2.2l-0.5,2.5l-1.7-0.3l2.2-11.7c0.4-2,1.3-3.5,2.6-4.4c1.3-0.8,3-1.1,4.9-0.8c1.5,0.3,2.7,0.9,3.6,1.9
		c0.9,1,1.4,2.1,1.3,3.3l-1.7,0.2c-0.1-1.3-0.8-3.4-3.5-3.9c-1.3-0.2-2.4-0.1-3.4,0.5c-1,0.5-1.7,1.7-2,3.3L296.4,713.1z
		 M297.5,713.5c-1,0.7-1.6,1.7-1.8,3c-0.5,2.3,1,5,3.4,5.4c1.3,0.2,2.4,0,3.3-0.7c0.9-0.7,1.5-1.8,1.8-3.1c0.5-2.4-0.8-4.9-3.3-5.3
		C299.6,712.5,298.5,712.8,297.5,713.5z"/>
	<path id="XMLID_496_" class="st0" d="M287,720.8l1.6-6.9c0.3-1.1,0.2-2-0.2-2.8c-0.4-0.8-1.1-1.3-2.2-1.5c-1-0.2-1.9-0.1-2.8,0.5
		c-0.8,0.6-1.4,1.4-1.6,2.4l-1.6,6.8l-1.7-0.4l2.8-11.9l1.7,0.4l-0.5,2.2c1.3-1.4,2.9-1.9,4.6-1.5c1.4,0.3,2.4,1,3,2.1
		c0.6,1.1,0.7,2.3,0.4,3.7l-1.7,7.3L287,720.8z"/>
	<path id="XMLID_494_" class="st0" d="M272.7,724l-1.7-0.5l4.7-18l1.7,0.5L272.7,724z"/>
	<path id="XMLID_491_" class="st0" d="M262.7,702.5c1-0.3,2.1-0.3,3.1,0c1.9,0.6,3.2,1.9,3.7,3.9l2.4-8.2l1.7,0.5l-5.2,17.4
		l-1.7-0.5l0.8-2.5c-1.7,1.5-3.5,2-5.3,1.4c-1.6-0.5-2.9-1.6-3.5-3.1c-0.6-1.4-0.7-3.1-0.3-4.6C259.2,704.8,260.7,703.2,262.7,702.5
		z M262.4,704.5c-1,0.7-1.7,1.6-2,2.9c-0.5,1.6-0.3,3.3,0.7,4.5c0.5,0.6,1.2,1,2,1.3c2.4,0.7,4.9-0.9,5.5-3.3
		c0.4-1.2,0.3-2.4-0.2-3.5c-0.5-1.2-1.4-1.9-2.6-2.3C264.5,703.8,263.4,703.9,262.4,704.5z"/>
	<path id="XMLID_489_" class="st0" d="M249,705.8l-6.1-2.2l0.6-1.8l6.1,2.2L249,705.8z"/>
	<path id="XMLID_486_" class="st0" d="M227.4,689.5c1-0.2,2.1-0.1,3.1,0.3c1.8,0.8,3,2.2,3.3,4.4l1-2.4l1.6,0.7l-7.2,17.1l-1.7-0.7
		l3.5-8.3c-1.9,1.3-3.7,1.5-5.4,0.8c-1.6-0.7-2.7-1.9-3.1-3.4c-0.4-1.5-0.4-3.1,0.2-4.6C223.6,691.4,225.3,690,227.4,689.5z
		 M226.8,691.5c-1.1,0.5-1.8,1.4-2.3,2.6c-0.7,1.6-0.6,3.2,0.3,4.5c0.4,0.7,1.1,1.2,1.8,1.5c2.3,1,5-0.4,5.8-2.6
		c0.5-1.2,0.6-2.4,0.2-3.5c-0.4-1.2-1.2-2-2.3-2.5C229,691,227.9,691,226.8,691.5z"/>
	<path id="XMLID_483_" class="st0" d="M219.3,691.3c0.4-1.1,0.5-2.2,0-3.3c-0.4-1.1-1.2-1.9-2.2-2.4c-1.7-0.8-3.3-0.5-4.5,0.8
		l-1.2-1.1c0.8-0.9,1.8-1.4,3-1.6c1.2-0.2,2.3,0,3.4,0.5c1,0.5,1.9,1.2,2.5,2.1c0.6,0.9,1,1.9,1,3c0.1,1.1-0.1,2.2-0.6,3.2
		c-0.5,1-1.1,1.8-2,2.5c-0.9,0.7-1.8,1.1-2.9,1.2c-1.1,0.1-2.1,0-3.1-0.5c-1.1-0.5-1.9-1.2-2.5-2.1c-0.6-0.9-0.8-1.8-0.8-2.9
		c0-1,0.3-2.1,0.8-3.2c0.1-0.1,0.1-0.3,0.3-0.5L219.3,691.3z M211.3,689.2c-0.4,1.1-0.4,2.1-0.1,3c0.3,0.9,1,1.6,2,2.1
		c1,0.4,1.9,0.5,2.9,0.2c1-0.4,1.8-1,2.4-1.8L211.3,689.2z"/>
	<path id="XMLID_481_" class="st0" d="M202.7,677l-3.4,6.3c-0.5,0.9-0.7,1.8-0.5,2.7c0.2,0.8,0.7,1.5,1.6,2c0.9,0.5,1.8,0.5,2.7,0.2
		c0.9-0.4,1.6-1,2.1-2l3.3-6.1l1.6,0.8l-5.7,10.8l-1.5-0.8l1-1.9c-1.7,0.9-3,1-4.6,0.2c-1.6-0.8-2.4-2.2-2.3-4c-1.7,1-3.3,1-4.9,0.2
		c-1.3-0.7-2-1.6-2.3-2.8c-0.3-1.1-0.1-2.4,0.6-3.7l3.5-6.6l1.6,0.8l-3.3,6.3c-0.5,1-0.7,1.9-0.6,2.7c0.1,0.8,0.7,1.5,1.6,2
		c0.9,0.5,1.8,0.5,2.7,0.2c0.9-0.3,1.6-1,2.1-1.9l3.3-6.2L202.7,677z"/>
	<path id="XMLID_479_" class="st0" d="M181.3,674.1l-5.5-3.4l1-1.6l5.5,3.4L181.3,674.1z"/>
	<path id="XMLID_477_" class="st0" d="M164.5,653.5l-4,5.8c-0.6,0.9-0.9,1.8-0.8,2.7c0.1,0.9,0.6,1.6,1.5,2.2
		c0.9,0.6,1.8,0.8,2.8,0.6c1-0.2,1.8-0.8,2.4-1.7l3.9-5.7l1.5,1l-6.9,10l-1.4-1l1.3-1.8c-1.7,0.8-3.3,0.7-4.9-0.4
		c-1.2-0.8-1.9-1.8-2.1-3c-0.1-1.2,0.2-2.4,1-3.6l4.3-6.2L164.5,653.5z"/>
	<path id="XMLID_475_" class="st0" d="M151.4,659.1l4.3-5.7c0.7-0.9,1-1.8,0.9-2.7c0-0.9-0.5-1.6-1.4-2.3c-0.8-0.6-1.7-0.9-2.7-0.7
		c-1,0.2-1.8,0.7-2.5,1.6l-4.2,5.5l-1.4-1.1l7.3-9.7l1.4,1l-1.3,1.8c1.8-0.7,3.4-0.6,4.8,0.5c1.2,0.9,1.8,1.9,1.9,3.1
		c0.1,1.2-0.3,2.4-1.2,3.6l-4.5,6L151.4,659.1z"/>
	<path id="XMLID_473_" class="st0" d="M142.3,642.8l6-1.5l1.6,1.3l-7.7,1.8l-0.2,7.6l-1.6-1.3l0.2-5.9l-5.8,1.4l-1.6-1.3l7.3-1.7
		l0.2-7.9l1.6,1.3L142.3,642.8z"/>
	<path id="XMLID_471_" class="st0" d="M136.4,635.6l-4.9,5.6l1.7,1.5l-1,1.2l-1.7-1.5l-2.3,2.7l-1.3-1.2l2.3-2.7l-2.3-2l1-1.2l2.3,2
		l4.9-5.6c0.7-0.9,0.6-1.7-0.4-2.6c-0.3-0.3-0.6-0.5-0.9-0.6l1-1.1c0.4,0.2,0.8,0.4,1.2,0.8C138,632.6,137.6,634.3,136.4,635.6z"/>
	<path id="XMLID_469_" class="st0" d="M122.7,630l-4.7-4.5l1.3-1.4l4.7,4.5L122.7,630z"/>
	<path id="XMLID_466_" class="st0" d="M111.8,615.9c0.8-0.9,1.2-1.9,1.2-3c0-1.2-0.4-2.2-1.2-3c-1.3-1.3-2.9-1.7-4.5-0.9l-0.7-1.5
		c1.1-0.5,2.2-0.7,3.3-0.4c1.1,0.3,2.1,0.8,3,1.7c0.8,0.8,1.3,1.8,1.6,2.9s0.2,2.1-0.1,3.2c-0.3,1-0.9,2-1.7,2.8
		c-0.8,0.8-1.7,1.3-2.8,1.6c-1,0.3-2.1,0.3-3.2,0.1c-1.1-0.2-2-0.8-2.7-1.6c-0.8-0.9-1.4-1.8-1.6-2.8c-0.2-1-0.1-2,0.3-3
		c0.4-1,1-1.8,1.9-2.7c0.1-0.1,0.2-0.2,0.4-0.4L111.8,615.9z M105.2,611.1c-0.7,0.9-1.1,1.8-1.1,2.8c0,1,0.4,1.9,1.1,2.7
		c0.7,0.8,1.6,1.1,2.7,1.2c1.1,0,2.1-0.2,2.9-0.8L105.2,611.1z"/>
	<path id="XMLID_464_" class="st0" d="M101.3,596.2l-5.3,4.7c-0.8,0.7-1.3,1.5-1.5,2.4c-0.1,0.9,0.2,1.7,0.9,2.5
		c0.7,0.8,1.6,1.2,2.6,1.2c1,0,1.9-0.3,2.7-1.1l5.2-4.6l1.2,1.3l-9.1,8.1l-1.2-1.3l1.7-1.5c-1.9,0.4-3.4-0.2-4.6-1.5
		c-1-1.1-1.4-2.2-1.3-3.4c0.2-1.2,0.8-2.3,1.9-3.3l5.6-5L101.3,596.2z"/>
	<path id="XMLID_461_" class="st0" d="M89.6,586.3c2.1-0.3,3.8,0.3,5.1,1.9c0.7,0.9,1.1,1.8,1.2,2.9c0.1,1-0.1,2-0.5,3
		c-0.4,1-1.1,1.8-2,2.5c-0.8,0.7-1.8,1.1-2.8,1.4c-1,0.2-2.1,0.2-3.1-0.1c-1-0.3-1.9-0.9-2.6-1.8c-0.7-0.9-1.1-1.9-1.2-2.8
		c-0.1-0.9,0.1-1.7,0.3-2.6l-2,1.6l-1.1-1.4l9.2-7.5c1.6-1.3,3.2-1.9,4.8-1.7c1.6,0.2,3,1.1,4.2,2.6c1,1.2,1.5,2.5,1.5,3.8
		c0,1.3-0.3,2.5-1.1,3.4l-1.4-0.9c0.8-1,1.6-3.1-0.2-5.2c-0.8-1-1.7-1.6-2.9-1.8c-1.1-0.2-2.4,0.2-3.7,1.2L89.6,586.3z M90.2,587.3
		c-1.2-0.1-2.3,0.3-3.3,1.1c-1.9,1.5-2.4,4.4-0.9,6.3c0.8,1,1.8,1.6,3,1.6c1.2,0.1,2.3-0.4,3.3-1.2c2-1.5,2.6-4.2,0.9-6.2
		C92.4,587.9,91.4,587.4,90.2,587.3z"/>
	<path id="XMLID_459_" class="st0" d="M73.4,591.4l-1.1-1.4l14.8-11.3l1.1,1.4L73.4,591.4z"/>
	<path id="XMLID_456_" class="st0" d="M71.7,585.7c-0.3,0.2-0.6,0.3-1,0.3c-0.3-0.1-0.7-0.2-0.9-0.5s-0.3-0.6-0.2-1
		c0.1-0.4,0.2-0.7,0.5-0.9c0.3-0.2,0.6-0.3,1-0.3c0.3,0.1,0.6,0.2,0.9,0.5s0.3,0.7,0.3,1C72.2,585.1,72,585.4,71.7,585.7z
		 M74.9,582.7l-1.1-1.4l9.8-7.2l1.1,1.4L74.9,582.7z"/>
	<path id="XMLID_454_" class="st0" d="M76.8,565.8c1,0.3,1.9,0.9,2.6,1.9c1.1,1.6,1.2,3.1,0.8,4.2c-0.3,0.8-0.6,1.3-1.1,1.7
		l-1.3-1.1c0.8-0.8,1.4-2.3,0.3-3.9c-0.4-0.6-0.9-0.9-1.5-1.1c-0.6-0.2-1.1-0.1-1.6,0.2c-0.4,0.3-0.6,0.7-0.6,1.2
		c0,0.5,0.1,1,0.3,1.5l0.7,1.8c0.8,1.9,0.5,3.4-0.9,4.3c-1,0.7-2.2,0.8-3.2,0.4c-0.9-0.4-1.7-1-2.2-1.7c-1-1.5-1.1-2.9-0.8-3.9
		c0.2-0.7,0.6-1.2,0.9-1.5l1.3,1.1c-0.3,0.4-0.5,0.8-0.7,1.4c-0.2,0.6,0,1.4,0.5,2.1c0.4,0.5,0.8,0.9,1.4,1c0.6,0.2,1.1,0.1,1.5-0.2
		c0.8-0.5,0.8-1.4,0.4-2.4l-0.8-1.9c-0.6-1.5-0.7-3.4,0.9-4.5C74.8,565.7,75.8,565.5,76.8,565.8z"/>
	<path id="XMLID_452_" class="st0" d="M70.3,554.5l-5.9,3.8c-0.9,0.6-1.5,1.3-1.8,2.2c-0.2,0.8-0.1,1.7,0.5,2.6
		c0.6,0.9,1.4,1.4,2.4,1.6c1,0.2,1.9,0,2.9-0.6l5.8-3.8l1,1.5l-15.6,10.1l-1-1.5l7.2-4.7c-1.9,0.1-3.3-0.7-4.3-2.2
		c-0.8-1.2-1-2.4-0.7-3.6c0.3-1.2,1.1-2.1,2.3-2.9l6.3-4.1L70.3,554.5z"/>
	<path id="XMLID_450_" class="st0" d="M57.3,548.7l-3.3-5.7l1.6-0.9l3.3,5.7L57.3,548.7z"/>
	<path id="XMLID_448_" class="st0" d="M53.1,531l-6.6,3.4l1,2l-1.4,0.7l-1-2l-3.1,1.6l-0.8-1.6l3.1-1.6l-1.4-2.7l1.4-0.7l1.4,2.7
		l6.6-3.4c1-0.5,1.2-1.4,0.6-2.5c-0.2-0.4-0.4-0.7-0.6-0.9l1.3-0.7c0.3,0.3,0.6,0.7,0.8,1.2C55.7,528.8,54.7,530.2,53.1,531z"/>
	<path id="XMLID_446_" class="st0" d="M57.5,519.3l-7.5,0.1l-7.8,9.9l-0.9-1.8l6.6-8.1l-10.3,0.2l-0.8-1.7l20-0.3L57.5,519.3z"/>
	<path id="XMLID_443_" class="st0" d="M42.3,502.1c0.9,0.6,1.6,1.4,2,2.4c0.8,1.8,0.6,3.6-0.6,5.4l7.8-3.4l0.7,1.6l-16.7,7.2
		l-0.7-1.6l2.4-1c-2.2-0.4-3.7-1.5-4.5-3.2c-0.7-1.6-0.6-3.3,0.2-4.6c0.7-1.3,1.9-2.5,3.4-3.1C38.3,500.9,40.5,501,42.3,502.1z
		 M40.6,503.2c-1.1-0.3-2.3-0.3-3.5,0.3c-1.6,0.7-2.7,1.9-3,3.4c-0.2,0.8,0,1.6,0.3,2.4c0.9,2.3,3.8,3.2,6,2.2
		c1.2-0.5,2.1-1.3,2.6-2.4c0.6-1.1,0.6-2.3,0.1-3.4C42.5,504.3,41.7,503.5,40.6,503.2z"/>
	<path id="XMLID_440_" class="st0" d="M35.3,497.7c1.1-0.5,1.9-1.3,2.3-2.3c0.5-1.1,0.5-2.1,0.1-3.2c-0.7-1.7-2-2.7-3.8-2.6
		l-0.1-1.6c1.2-0.1,2.3,0.2,3.2,0.9c0.9,0.7,1.7,1.6,2.1,2.8c0.4,1.1,0.5,2.2,0.3,3.3c-0.2,1.1-0.6,2.1-1.4,2.9
		c-0.7,0.8-1.6,1.5-2.7,1.9c-1,0.4-2.1,0.5-3.2,0.4c-1.1-0.1-2.1-0.5-2.9-1.2c-0.9-0.6-1.5-1.5-1.9-2.5c-0.4-1.1-0.5-2.2-0.3-3.2
		c0.2-1,0.7-1.9,1.4-2.6c0.7-0.7,1.6-1.3,2.8-1.7c0.1,0,0.3-0.1,0.6-0.2L35.3,497.7z M31,490.7c-1,0.5-1.7,1.2-2.1,2.1
		c-0.4,0.9-0.4,1.9,0,2.9c0.4,1,1,1.7,2,2.2c1,0.5,2,0.6,3,0.4L31,490.7z"/>
	<path id="XMLID_438_" class="st0" d="M33.1,477.6c0.9,0.6,1.6,1.4,2,2.6c0.6,1.9,0.3,3.3-0.4,4.3c-0.5,0.7-1,1-1.5,1.3l-0.9-1.4
		c1-0.5,2-1.8,1.4-3.6c-0.2-0.6-0.6-1.1-1.1-1.5c-0.5-0.4-1-0.4-1.6-0.2c-0.5,0.2-0.8,0.5-0.9,0.9c-0.2,0.5-0.2,1-0.2,1.5l0.2,1.9
		c0.2,2-0.5,3.4-2,3.9c-1.2,0.4-2.4,0.1-3.2-0.5c-0.8-0.6-1.3-1.4-1.6-2.2c-0.6-1.7-0.3-3.1,0.4-4c0.4-0.6,0.9-1,1.3-1.2l1,1.4
		c-0.4,0.3-0.7,0.6-1.1,1.1c-0.3,0.6-0.4,1.3-0.1,2.2c0.2,0.6,0.5,1.1,1.1,1.4c0.5,0.3,1,0.4,1.5,0.2c0.9-0.3,1.1-1.1,1-2.2l-0.2-2
		c-0.2-1.6,0.3-3.5,2.1-4.1C31.2,476.9,32.2,477,33.1,477.6z"/>
	<path id="XMLID_436_" class="st0" d="M29.7,471c0.2-0.8,0.2-1.6,0-2.5c-0.3-1-0.9-1.8-1.4-2.2c-0.3-0.2-0.6-0.4-0.9-0.5
		c-0.7-0.3-1.1-0.3-1.6-0.4l0-1.7c1,0,2.1,0.3,3.1,1c1,0.7,1.9,1.9,2.4,3.3c1,3.3-0.8,6.8-4.2,7.7c-1.1,0.3-2.3,0.4-3.4,0.1
		c-1.1-0.3-2-0.8-2.8-1.5c-0.8-0.8-1.3-1.7-1.7-2.8c-0.4-1.3-0.4-2.6,0-3.8c0.4-1.2,1.1-2.1,2.1-2.7l1,1.4c-0.9,0.5-2.3,2.3-1.6,4.7
		c0.4,1.2,1.1,2.1,2.2,2.6s2.3,0.6,3.5,0.2C28,473.7,29.2,472.6,29.7,471z"/>
	<path id="XMLID_434_" class="st0" d="M16.4,461.4l2.3-0.6c-1.3-0.3-2.3-1-2.9-1.8c-0.3-0.4-0.5-0.9-0.6-1.3
		c-0.1-0.3-0.1-0.4-0.1-0.6l1.8-0.5c0,0.2,0.1,0.4,0.1,0.7c0.7,2.8,3.3,3.1,5.4,2.5l5.8-1.5l0.5,1.7l-11.8,3.1L16.4,461.4z"/>
	<path id="XMLID_431_" class="st0" d="M10.5,456c-0.4,0.1-0.7,0-1-0.2c-0.3-0.2-0.5-0.5-0.6-0.8c-0.1-0.4,0-0.7,0.2-1
		c0.2-0.3,0.5-0.5,0.8-0.6c0.4-0.1,0.7,0,1,0.2c0.3,0.2,0.5,0.5,0.6,0.8c0.1,0.4,0,0.7-0.2,1C11.2,455.7,10.9,455.9,10.5,456z
		 M14.7,454.5l-0.4-1.7l11.8-2.9l0.4,1.7L14.7,454.5z"/>
	<path id="XMLID_428_" class="st0" d="M22.5,437c0.8,0.7,1.3,1.7,1.5,2.8c0.4,1.9-0.1,3.7-1.6,5.1l8.3-1.8l0.4,1.8l-17.8,3.8
		l-0.4-1.7l2.6-0.5c-2.1-0.8-3.4-2.2-3.8-4c-0.4-1.7,0.1-3.3,1-4.5c1-1.2,2.4-2.1,3.9-2.4C18.8,435,20.9,435.5,22.5,437z
		 M20.6,437.7c-1-0.6-2.2-0.7-3.5-0.4c-1.7,0.4-3,1.3-3.6,2.8c-0.3,0.7-0.4,1.5-0.2,2.4c0.5,2.4,3.1,3.9,5.5,3.3
		c1.2-0.3,2.3-0.9,3-1.9c0.8-1,1-2.1,0.7-3.4C22.2,439.2,21.6,438.3,20.6,437.7z"/>
	<path id="XMLID_426_" class="st0" d="M18.9,431.4l-7.3,1.3L12,435l-1.5,0.3L10,433l-3.4,0.6l-0.3-1.7l3.4-0.6l-0.5-3l1.5-0.3l0.5,3
		l7.3-1.3c1.1-0.2,1.6-1,1.3-2.3c-0.1-0.4-0.2-0.8-0.3-1.1l1.4-0.3c0.2,0.4,0.3,0.8,0.4,1.3C22,430.1,20.7,431.1,18.9,431.4z"/>
	<path id="XMLID_424_" class="st0" d="M11.8,418.4l-0.9-6.5l1.9-0.2l0.9,6.5L11.8,418.4z"/>
	<path id="XMLID_421_" class="st0" d="M0,401.5c0-0.4,0.1-0.7,0.3-1c0.2-0.3,0.6-0.4,0.9-0.5c0.4,0,0.7,0.1,1,0.3
		c0.3,0.2,0.4,0.6,0.5,0.9c0,0.4-0.1,0.7-0.3,1c-0.2,0.3-0.5,0.5-0.9,0.5C0.7,402.8,0.1,402.2,0,401.5z M5.6,400.1l14.7-1.3
		c2.3-0.2,3.6,0.9,3.8,3.1c0,0.3,0,0.7-0.1,1.1l-1.5,0.1c0-0.2,0-0.5,0-0.9c-0.1-1.2-0.9-1.9-2.1-1.8l-14.7,1.3L5.6,400.1z"/>
	<path id="XMLID_418_" class="st0" d="M9.9,388.2l-0.8,0.1c-2,0.1-2.9,1.3-2.8,3.3c0.1,1,0.4,1.8,1,2.2c0.5,0.5,1.1,0.7,1.7,0.8
		l-0.3,1.7c-0.6,0-1.8-0.5-2.8-1.5c-0.6-0.7-1.1-1.8-1.2-3.2c-0.1-2.2,0.6-3.7,2.2-4.6c0.5-0.3,1.2-0.4,2-0.5l3.4-0.2
		c2-0.1,3.5-0.3,4.4-0.5l0.1,1.8c-0.5,0.1-1.2,0.3-2.1,0.3c1.6,0.9,2.5,2.2,2.6,4c0.1,1.2-0.2,2.2-0.8,3c-0.6,0.8-1.4,1.2-2.5,1.3
		l-0.1,0c-2.6,0.2-3.7-2.4-3.8-4.6L9.9,388.2z M11.4,388.1l0.2,3.4c0,0.7,0.2,1.4,0.5,2c0.3,0.6,0.9,1,1.7,0.9
		c0.7,0,1.2-0.3,1.5-0.9c0.4-0.5,0.5-1.1,0.5-1.9c-0.1-1.1-0.5-2-1.3-2.6c-0.7-0.7-1.7-1-2.8-0.9L11.4,388.1z"/>
	<path id="XMLID_415_" class="st0" d="M15.7,372.9c0.6,0.9,0.9,1.9,1,3c0,2-0.8,3.6-2.6,4.7l8.5-0.2l0,1.8l-18.2,0.5l0-1.7l2.6-0.1
		c-1.9-1.2-2.9-2.7-3-4.7c0-1.7,0.7-3.2,1.9-4.2c1.2-1,2.7-1.6,4.3-1.7C12.4,370.2,14.4,371.1,15.7,372.9z M13.7,373.2
		c-0.9-0.7-2-1.1-3.4-1.1c-1.7,0-3.2,0.7-4,2.1c-0.4,0.6-0.6,1.4-0.6,2.3c0,2.5,2.4,4.4,4.8,4.2c1.3,0,2.4-0.5,3.3-1.3
		c0.9-0.9,1.4-1.9,1.3-3.2C15.1,375,14.6,373.9,13.7,373.2z"/>
	<path id="XMLID_412_" class="st0" d="M9.4,359.7l-0.8,0c-2,0-3,1-3,3.1c0,1,0.3,1.8,0.8,2.3c0.5,0.5,1,0.8,1.7,0.9l-0.4,1.7
		c-0.6,0-1.8-0.6-2.7-1.8c-0.6-0.7-1-1.9-1-3.2c0-2.2,0.9-3.7,2.6-4.4c0.6-0.2,1.2-0.3,2-0.3L12,358c2,0,3.5,0,4.4-0.1l0,1.8
		c-0.5,0.1-1.3,0.2-2.1,0.1c1.6,1.1,2.3,2.4,2.3,4.2c0,1.2-0.4,2.2-1.1,2.9c-0.7,0.7-1.5,1.1-2.6,1.1l-0.1,0c-2.6,0-3.5-2.7-3.4-4.9
		L9.4,359.7z M10.9,359.7l-0.1,3.4c0,0.7,0.1,1.4,0.4,2c0.3,0.6,0.8,1,1.6,1.1c0.7,0,1.2-0.2,1.6-0.7c0.4-0.5,0.6-1.1,0.6-1.9
		c0-1.1-0.3-2-1-2.7c-0.7-0.7-1.6-1.1-2.7-1.1L10.9,359.7z"/>
	<path id="XMLID_410_" class="st0" d="M17,345.6l-7.1-0.4c-1.1-0.1-2,0.2-2.7,0.7c-0.7,0.5-1.1,1.3-1.1,2.4c-0.1,1.1,0.3,2,1,2.7
		c0.7,0.7,1.6,1.1,2.7,1.1l6.9,0.4l-0.1,1.8l-12.2-0.6l0.1-1.7l2.2,0.1c-1.6-1.1-2.3-2.5-2.2-4.3c0.1-1.4,0.6-2.5,1.5-3.3
		c0.9-0.7,2.1-1.1,3.6-1l7.5,0.4L17,345.6z"/>
	<path id="XMLID_407_" class="st0" d="M12,338.7c1.2,0,2.2-0.3,3.1-1.1c0.9-0.8,1.4-1.7,1.5-2.9c0.2-1.8-0.6-3.3-2.2-4l0.6-1.5
		c1.1,0.4,2,1.2,2.5,2.2c0.5,1,0.8,2.2,0.7,3.4c-0.1,1.1-0.5,2.2-1.1,3.1c-0.6,0.9-1.5,1.6-2.5,2c-1,0.4-2.1,0.6-3.2,0.5
		c-1.1-0.1-2.1-0.4-3-1c-0.9-0.6-1.6-1.4-2.1-2.3c-0.5-1-0.7-2-0.6-3.1c0.1-1.2,0.5-2.2,1.1-3c0.6-0.8,1.4-1.4,2.4-1.7
		c1-0.4,2-0.5,3.3-0.3c0.1,0,0.3,0,0.6,0.1L12,338.7z M11.2,330.5c-1.1,0-2.1,0.3-2.8,1c-0.7,0.6-1.2,1.5-1.3,2.6
		c-0.1,1,0.2,2,0.8,2.8c0.7,0.9,1.5,1.4,2.5,1.6L11.2,330.5z"/>
	<path id="XMLID_405_" class="st0" d="M18.8,319.6c0.6,0.9,0.8,2,0.6,3.2c-0.2,1.9-1.2,3.1-2.2,3.6c-0.7,0.4-1.3,0.5-1.9,0.5
		l-0.2-1.7c1.1-0.1,2.6-0.7,2.9-2.6c0.1-0.7,0-1.3-0.3-1.8c-0.3-0.5-0.7-0.8-1.3-0.9c-0.5-0.1-0.9,0.1-1.2,0.4
		c-0.4,0.3-0.6,0.8-0.8,1.3l-0.6,1.8c-0.7,1.9-1.9,2.8-3.5,2.6c-1.2-0.2-2.2-0.9-2.6-1.9c-0.4-0.9-0.6-1.9-0.5-2.7
		c0.3-1.8,1.1-2.9,2.1-3.4c0.7-0.4,1.2-0.5,1.7-0.5l0.3,1.7c-0.5,0.1-0.9,0.2-1.5,0.5c-0.5,0.4-0.9,1-1,1.9c-0.1,0.7,0,1.2,0.3,1.7
		c0.3,0.5,0.7,0.8,1.3,0.9c0.9,0.1,1.5-0.5,1.9-1.5l0.7-1.9c0.6-1.5,1.8-3,3.7-2.7C17.4,318.2,18.3,318.7,18.8,319.6z"/>
	<path id="XMLID_402_" class="st0" d="M14.9,313.8c1.2,0.1,2.2-0.2,3.1-0.8c0.9-0.7,1.5-1.6,1.7-2.8c0.3-1.8-0.4-3.3-1.9-4.1
		l0.7-1.5c1.1,0.5,1.9,1.3,2.4,2.4c0.5,1.1,0.6,2.2,0.4,3.4c-0.2,1.1-0.6,2.1-1.4,3c-0.7,0.9-1.6,1.5-2.6,1.8
		c-1,0.4-2.1,0.5-3.2,0.3c-1.1-0.2-2.1-0.6-2.9-1.3c-0.9-0.6-1.5-1.5-1.9-2.5c-0.4-1-0.6-2.1-0.4-3.1c0.2-1.2,0.6-2.2,1.3-3
		c0.7-0.8,1.5-1.3,2.5-1.6c1-0.3,2.1-0.3,3.3-0.1c0.1,0,0.3,0.1,0.6,0.1L14.9,313.8z M14.7,305.5c-1.1-0.1-2.1,0.2-2.9,0.8
		c-0.8,0.6-1.3,1.4-1.5,2.5c-0.2,1,0,2,0.6,2.9c0.6,0.9,1.4,1.5,2.4,1.8L14.7,305.5z"/>
	<path id="XMLID_400_" class="st0" d="M15.8,294.4l1.4-6.4l1.8,0.4l-1.4,6.4L15.8,294.4z"/>
</g>
</svg>
